<svg id="Component_23_48" data-name="Component 23 – 48" xmlns="http://www.w3.org/2000/svg" xmlns:xlink="http://www.w3.org/1999/xlink" width="1920" height="4058" viewBox="0 0 1920 4058">
  <defs>
    <clipPath id="clip-path">
      <rect id="Rectangle_71" data-name="Rectangle 71" width="38.004" height="29.855" transform="translate(0 0)" fill="#fff"/>
    </clipPath>
    <clipPath id="clip-path-2">
      <rect id="Rectangle_72" data-name="Rectangle 72" width="26.873" height="38.402" transform="translate(0 0)" fill="#fff"/>
    </clipPath>
    <clipPath id="clip-path-3">
      <rect id="Rectangle_73" data-name="Rectangle 73" width="29.324" height="37.717" transform="translate(0 0)" fill="#fff"/>
    </clipPath>
    <clipPath id="clip-path-4">
      <rect id="Rectangle_9689" data-name="Rectangle 9689" width="976" height="1311" transform="translate(-16342 415)" fill="#0a2647" stroke="#707070" stroke-width="1"/>
    </clipPath>
  </defs>
  <rect id="Rectangle_79" data-name="Rectangle 79" width="274" height="40" rx="20" transform="translate(1276.443 1096.428)" fill="#fff"/>
  <text id="Enquiry_Now" data-name="Enquiry Now" transform="translate(1352.943 1123.428)" fill="#ca373c" font-size="20" font-family="Inter-Medium, Inter" font-weight="500"><tspan x="0" y="0">Enquiry Now</tspan></text>
  <g id="Rectangle_9690" data-name="Rectangle 9690" fill="#fff" stroke="#707070" stroke-width="1">
    <rect width="1920" height="4058" stroke="none"/>
    <rect x="0.5" y="0.5" width="1919" height="4057" fill="none"/>
  </g>
  <g id="Rectangle_9688" data-name="Rectangle 9688" transform="translate(472 1058)" fill="#0a2647" stroke="#707070" stroke-width="1">
    <rect width="976" height="1311" stroke="none"/>
    <rect x="0.5" y="0.5" width="975" height="1310" fill="none"/>
  </g>
  <text id="GET_IN_TOUCH" data-name="GET IN TOUCH" transform="translate(746 1668.299)" fill="#fff" font-size="60" font-family="Inter-Bold, Inter" font-weight="700"><tspan x="0" y="0">GET IN TOUCH</tspan></text>
  <text id="Your_Message" data-name="Your Message" transform="translate(651.5 2080.299)" fill="#fff" font-size="20" font-family="Inter-Light, Inter" font-weight="300"><tspan x="0" y="0">Your Message</tspan></text>
  <text id="Name" transform="translate(651.5 1734.299)" fill="#fff" font-size="20" font-family="Inter-Light, Inter" font-weight="300"><tspan x="0" y="0">Name</tspan></text>
  <line id="Line_11" data-name="Line 11" x2="640" transform="translate(641 1743.799)" fill="none" stroke="#fff" stroke-linecap="round" stroke-width="2"/>
  <text id="Email" transform="translate(651.5 1791.299)" fill="#fff" font-size="20" font-family="Inter-Light, Inter" font-weight="300"><tspan x="0" y="0">Email</tspan></text>
  <line id="Line_12" data-name="Line 12" x2="640" transform="translate(641 1802.299)" fill="none" stroke="#fff" stroke-linecap="round" stroke-width="2"/>
  <text id="Mobile_Number" data-name="Mobile Number" transform="translate(651.5 1850.299)" fill="#fff" font-size="20" font-family="Inter-Light, Inter" font-weight="300"><tspan x="0" y="0">Mobile Number</tspan></text>
  <line id="Line_13" data-name="Line 13" x2="310" transform="translate(641 1858.299)" fill="none" stroke="#fff" stroke-linecap="round" stroke-width="2"/>
  <line id="Line_32" data-name="Line 32" x2="640" transform="translate(641 2160.299)" fill="none" stroke="#fff" stroke-linecap="round" stroke-width="2"/>
  <g id="Group_28244" data-name="Group 28244" transform="translate(-88.973 1094)">
    <text id="Knock_Knock_" data-name="Knock, Knock," transform="translate(801.973 214.612)" fill="#fff" font-size="60" font-family="Inter-Bold, Inter" font-weight="700"><tspan x="0" y="0">Knock, Knock,</tspan></text>
    <text id="Step_into_joy_with_beautiful_floors." data-name="Step into joy with beautiful floors." transform="translate(801.973 260.612)" fill="#fff" font-size="20" font-family="Inter-Regular, Inter"><tspan x="0" y="0">Step into joy with beautiful floors.</tspan></text>
    <g id="Group_494" data-name="Group 494" transform="translate(-300.027 -7306.389)">
      <g id="Group_59" data-name="Group 59" transform="translate(0.5 -4.072)">
        <text id="info_samaro.in" data-name="info@samaro.in" transform="translate(1168 7724.072)" fill="#fff" font-size="20" font-family="Inter-Regular, Inter"><tspan x="0" y="0">info@samaro.in</tspan></text>
        <g id="Group_53" data-name="Group 53" transform="translate(1101.5 7702.072)">
          <g id="Group_52" data-name="Group 52" clip-path="url(#clip-path)">
            <path id="Path_2657" data-name="Path 2657" d="M32.517,0H5.486A5.492,5.492,0,0,0,0,5.487V24.368a5.493,5.493,0,0,0,5.486,5.487H32.517A5.494,5.494,0,0,0,38,24.368V5.487A5.493,5.493,0,0,0,32.517,0m0,2.623a2.859,2.859,0,0,1,.652.077l-11.4,12.94a3.683,3.683,0,0,1-5.526,0L4.835,2.7a2.857,2.857,0,0,1,.651-.077Zm2.864,21.745a2.868,2.868,0,0,1-2.864,2.864H5.486a2.868,2.868,0,0,1-2.864-2.864V5.487A2.861,2.861,0,0,1,2.837,4.4L14.271,17.374a6.307,6.307,0,0,0,9.462,0L35.166,4.4a2.834,2.834,0,0,1,.215,1.085Z" fill="#fff"/>
          </g>
        </g>
      </g>
      <g id="Group_60" data-name="Group 60" transform="translate(231.16 50)">
        <text id="_91-8097545115" data-name="+91-8097545115" transform="translate(1168 7670)" fill="#fff" font-size="20" font-family="Inter-Regular, Inter"><tspan x="0" y="0">+91-8097545115</tspan></text>
        <g id="Group_55" data-name="Group 55" transform="translate(1107.065 7644)">
          <g id="Group_54" data-name="Group 54" clip-path="url(#clip-path-2)">
            <path id="Path_2658" data-name="Path 2658" d="M21.188,0H5.684A5.69,5.69,0,0,0,0,5.684V32.717A5.69,5.69,0,0,0,5.684,38.4h15.5a5.691,5.691,0,0,0,5.684-5.685V5.684A5.691,5.691,0,0,0,21.188,0M5.684,2.623h15.5A3.065,3.065,0,0,1,24.25,5.684V27.342H2.622V5.684A3.064,3.064,0,0,1,5.684,2.623m15.5,33.156H5.684a3.065,3.065,0,0,1-3.062-3.062V29.965H24.25v2.752a3.065,3.065,0,0,1-3.062,3.062" fill="#fff"/>
            <path id="Path_2659" data-name="Path 2659" d="M13.078,6.4a1.049,1.049,0,1,0-1.049-1.049A1.049,1.049,0,0,0,13.078,6.4" fill="#fff"/>
            <path id="Path_2660" data-name="Path 2660" d="M13.078,31.6a1.049,1.049,0,1,0,1.049,1.049A1.049,1.049,0,0,0,13.078,31.6" fill="#fff"/>
          </g>
        </g>
      </g>
    </g>
    <g id="Group_495" data-name="Group 495" transform="translate(-303.867 -7445.389)">
      <text id="_213-215_Hubtown_Solaris_N._S._Phadke_Marg_Andheri_East_Mumbai-400069_India." data-name="213-215, Hubtown Solaris, N. S. Phadke Marg,
Andheri (East), Mumbai-400069, India." transform="translate(1168 7771)" fill="#fff" font-size="20" font-family="Inter-Regular, Inter"><tspan x="0" y="0">213-215, Hubtown Solaris, N. S. Phadke Marg,</tspan><tspan x="0" y="24">Andheri (East), Mumbai-400069, India.</tspan></text>
      <g id="Group_57" data-name="Group 57" transform="translate(1105.84 7758)">
        <g id="Group_56" data-name="Group 56" clip-path="url(#clip-path-3)">
          <path id="Path_2661" data-name="Path 2661" d="M14.662,37.717h0a1.3,1.3,0,0,1-.96-.419C13.142,36.7,0,22.462,0,14.662a14.662,14.662,0,0,1,29.324,0c0,7.8-13.142,22.035-13.7,22.636a1.305,1.305,0,0,1-.96.419m0-35.094A12.052,12.052,0,0,0,2.623,14.662c0,5.177,7.955,15.2,12.039,19.792C18.746,29.86,26.7,19.839,26.7,14.662A12.053,12.053,0,0,0,14.662,2.623" fill="#fff"/>
          <path id="Path_2662" data-name="Path 2662" d="M14.662,20.622a6.6,6.6,0,1,1,6.6-6.6,6.608,6.608,0,0,1-6.6,6.6m0-10.579a3.978,3.978,0,1,0,3.979,3.979,3.983,3.983,0,0,0-3.979-3.979" fill="#fff"/>
        </g>
      </g>
    </g>
  </g>
  <g id="Component_23_51" data-name="Component 23 – 51" transform="translate(827 2185)">
    <g id="Rectangle_79-2" data-name="Rectangle 79" fill="none" stroke="#fff" stroke-width="4">
      <rect width="274" height="40" rx="20" stroke="none"/>
      <rect x="2" y="2" width="270" height="36" rx="18" fill="none"/>
    </g>
    <text id="Submit" transform="translate(104 27)" fill="#fff" font-size="20" font-family="Inter-Medium, Inter" font-weight="500"><tspan x="0" y="0">Submit</tspan></text>
  </g>
  <g id="Mask_Group_228" data-name="Mask Group 228" transform="translate(16814 643)" clip-path="url(#clip-path-4)">
    <g id="Group_27876" data-name="Group 27876" transform="translate(-17576.213 -4656.999)" opacity="0.1">
      <path id="Path_97065" data-name="Path 97065" d="M0,0H418.608V418.608H0Z" transform="matrix(0.719, 0.695, -0.695, 0.719, 1323.619, 4829.312)" fill="none" stroke="#fff" stroke-width="5"/>
      <path id="Path_97066" data-name="Path 97066" d="M0,0H408.49" transform="matrix(0.719, 0.695, -0.695, 0.719, 1247.522, 4908.111)" fill="none" stroke="#fff" stroke-width="5"/>
      <path id="Path_97067" data-name="Path 97067" d="M0,0H408.49" transform="matrix(0.719, 0.695, -0.695, 0.719, 1185.365, 4980.345)" fill="none" stroke="#fff" stroke-width="5"/>
      <path id="Path_97068" data-name="Path 97068" d="M0,0H408.49" transform="matrix(0.719, 0.695, -0.695, 0.719, 1119.277, 5048.781)" fill="none" stroke="#fff" stroke-width="5"/>
      <path id="Path_97065-2" data-name="Path 97065" d="M0,0H418.608V418.608H0Z" transform="matrix(-0.719, -0.695, 0.695, -0.719, 1343.752, 6011.798)" fill="none" stroke="#fff" stroke-width="5"/>
      <path id="Path_97066-2" data-name="Path 97066" d="M0,0H416.8" transform="matrix(-0.719, -0.695, 0.695, -0.719, 1425.83, 5925.774)" fill="none" stroke="#fff" stroke-width="5"/>
      <path id="Path_97067-2" data-name="Path 97067" d="M0,0H420.227" transform="matrix(-0.719, -0.695, 0.695, -0.719, 1492.568, 5857.964)" fill="none" stroke="#fff" stroke-width="5"/>
      <path id="Path_97068-2" data-name="Path 97068" d="M0,0H417.656" transform="matrix(-0.719, -0.695, 0.695, -0.719, 1557.736, 5788.639)" fill="none" stroke="#fff" stroke-width="5"/>
      <path id="Path_97065-3" data-name="Path 97065" d="M0,0H418.608V418.608H0Z" transform="matrix(-0.695, 0.719, -0.719, -0.695, 1926.597, 5410.721)" fill="none" stroke="#fff" stroke-width="5"/>
      <path id="Path_97066-3" data-name="Path 97066" d="M0,0,418.06-1.207" transform="matrix(-0.695, 0.719, -0.719, -0.695, 1847.797, 5334.625)" fill="none" stroke="#fff" stroke-width="5"/>
      <path id="Path_97067-3" data-name="Path 97067" d="M0,0H417.387" transform="matrix(-0.695, 0.719, -0.719, -0.695, 1778.851, 5269.063)" fill="none" stroke="#fff" stroke-width="5"/>
      <path id="Path_97068-3" data-name="Path 97068" d="M0,0H416.058" transform="matrix(-0.695, 0.719, -0.719, -0.695, 1710.349, 5203.042)" fill="none" stroke="#fff" stroke-width="5"/>
    </g>
  </g>
  <text id="Select_any_one" data-name="Select any one" transform="translate(641 1912)" fill="#fff" font-size="22" font-family="Montserrat-Regular, Montserrat" opacity="0.7"><tspan x="0" y="0">Select any one</tspan></text>
  <text id="Wholesaler_Distributors" data-name="Wholesaler / Distributors" transform="translate(689 1952)" fill="#fff" font-size="20" font-family="Montserrat-Light, Montserrat" font-weight="300"><tspan x="0" y="0">Wholesaler / Distributors</tspan></text>
  <g id="Rectangle_9699" data-name="Rectangle 9699" transform="translate(641 1931)" fill="none" stroke="#ca373c" stroke-width="2">
    <rect width="28" height="28" rx="14" stroke="none"/>
    <rect x="1" y="1" width="26" height="26" rx="13" fill="none"/>
  </g>
  <rect id="Rectangle_9700" data-name="Rectangle 9700" width="20" height="20" rx="10" transform="translate(645 1935)" fill="#ca373c"/>
  <text id="OEM" transform="translate(1132 2001)" fill="#fff" font-size="20" font-family="Montserrat-Light, Montserrat" font-weight="300"><tspan x="0" y="0">OEM</tspan></text>
  <g id="Rectangle_9701" data-name="Rectangle 9701" transform="translate(1084 1979)" fill="none" stroke="#ca373c" stroke-width="2">
    <rect width="28" height="28" rx="14" stroke="none"/>
    <rect x="1" y="1" width="26" height="26" rx="13" fill="none"/>
  </g>
  <g id="Rectangle_9702" data-name="Rectangle 9702" transform="translate(641 1982)" fill="none" stroke="#ca373c" stroke-width="2">
    <rect width="28" height="28" rx="14" stroke="none"/>
    <rect x="1" y="1" width="26" height="26" rx="13" fill="none"/>
  </g>
  <text id="For_Customer_Project_Inquiry" data-name="For Customer / Project Inquiry" transform="translate(688 2003)" fill="#fff" font-size="20" font-family="Montserrat-Light, Montserrat" font-weight="300"><tspan x="0" y="0">For Customer / Project Inquiry</tspan></text>
  <text id="Commercial_Project" data-name="Commercial Project" transform="translate(1132 1949)" fill="#fff" font-size="20" font-family="Montserrat-Light, Montserrat" font-weight="300"><tspan x="0" y="0">Commercial Project</tspan></text>
  <g id="Rectangle_9697" data-name="Rectangle 9697" transform="translate(1084 1928)" fill="none" stroke="#ca373c" stroke-width="2">
    <rect width="28" height="28" rx="14" stroke="none"/>
    <rect x="1" y="1" width="26" height="26" rx="13" fill="none"/>
  </g>
</svg>
