<svg xmlns="http://www.w3.org/2000/svg" width="81.937" height="81.937" viewBox="0 0 81.937 81.937">
  <g id="Group_29208" data-name="Group 29208" transform="translate(-1295.89 -1861.089)">
    <circle id="Ellipse_68" data-name="Ellipse 68" cx="40.768" cy="40.768" r="40.768" transform="translate(1296.09 1861.289)" fill="none" stroke="#818386" stroke-width="0.4"/>
    <path id="Path_99282" data-name="Path 99282" d="M82.955,265.061H74.616a.551.551,0,0,0-.551.551v5.02a.551.551,0,0,0,.551.551h8.338a.551.551,0,0,0,.551-.551v-5.02a.551.551,0,0,0-.551-.551m-.551,5.02H75.168v-3.917H82.4Z" transform="translate(1255.732 1634.848)" fill="#bb0e1f"/>
    <path id="Path_99291" data-name="Path 99291" d="M68.586,305.228h43.27a.551.551,0,0,0,.551-.551V256.746a.551.551,0,0,0-.551-.551H95.647a.549.549,0,0,0-.549.551v2.515H74.433a.551.551,0,0,0-.551.551v13.923h-5.3a.551.551,0,0,0-.551.551v30.39a.551.551,0,0,0,.551.551m20-1.1H83.349V290.864h4.684v11.62a.551.551,0,1,0,1.1,0v-11.62h4.681v13.261Zm6.335,0V290.313a.551.551,0,0,0-.551-.551H82.8a.551.551,0,0,0-.549.551v13.813h-7.69V284.033L88.587,270l6.671,6.671,7.354,7.354v20.1ZM96.2,257.3H111.3v46.83h-7.588v-18.99l2.035,2.032a.551.551,0,0,0,.78-.78L96.2,276.059ZM74.433,274.838a.551.551,0,0,0,.551-.551V260.364H95.1v14.592l-6.123-6.12a.551.551,0,0,0-.78,0l-7.837,7.837V264.993H92.754a.551.551,0,1,0,0-1.1H79.808a.551.551,0,0,0-.551.551v13.332l-8.612,8.614a.551.551,0,0,0,.764.793l.013-.013,2.035-2.032v18.99H69.135V274.838Z" transform="translate(1245.93 1620.437)" fill="#bb0e1f"/>
  </g>
</svg>
