<svg id="Group_117" data-name="Group 117" xmlns="http://www.w3.org/2000/svg" xmlns:xlink="http://www.w3.org/1999/xlink" width="125" height="125" viewBox="0 0 125 125">
  <defs>
    <clipPath id="clip-path">
      <rect id="Rectangle_161" data-name="Rectangle 161" width="125" height="125" fill="#ca373c"/>
    </clipPath>
  </defs>
  <g id="Group_116" data-name="Group 116" clip-path="url(#clip-path)">
    <path id="Path_2688" data-name="Path 2688" d="M62.5,125A62.5,62.5,0,0,1,18.306,18.306a62.5,62.5,0,0,1,88.388,88.388A62.09,62.09,0,0,1,62.5,125m0-121.212A58.712,58.712,0,1,0,121.212,62.5,58.779,58.779,0,0,0,62.5,3.788" fill="#ca373c"/>
    <path id="Path_2689" data-name="Path 2689" d="M140.164,170.392a21.9,21.9,0,0,1-5.392-.661,1.01,1.01,0,0,1-.462-1.7l42.934-42.43c2.562-2.532,5.288-5.237,7.97-8.018.835-.866,1.669-1.828,2.476-2.758a42.771,42.771,0,0,1,4.615-4.795c2.688-2.258,6.051-1.946,8.776.813a4.155,4.155,0,0,1,1.259,3.3,5.479,5.479,0,0,1-2.264,3.86c-5.269,4.911-14.453,13.836-17.068,16.382a8.019,8.019,0,0,1,1.552,4.5,2.7,2.7,0,0,1-.575,1.83,118.938,118.938,0,0,1-17.69,18.054c-9.574,7.734-18.336,11.628-26.13,11.628m-3.086-2.254c19.89,3.02,42.708-25.335,45.314-28.671a.683.683,0,0,0,.151-.461c-.17-2.753-1.5-3.795-1.553-3.838a1,1,0,0,1-.414-.74,1.007,1.007,0,0,1,.308-.8c.116-.113,11.686-11.4,17.852-17.143a.9.9,0,0,1,.082-.069,3.541,3.541,0,0,0,1.506-2.427,2.161,2.161,0,0,0-.682-1.727c-.935-.946-3.394-2.908-6.039-.687a41.329,41.329,0,0,0-4.389,4.572c-.823.95-1.675,1.932-2.547,2.836-2.7,2.8-5.433,5.512-8,8.053Z" transform="translate(-100.169 -81.127)" fill="#ca373c"/>
    <path id="Path_2690" data-name="Path 2690" d="M107.8,280.659a60.65,60.65,0,0,1-4.088-11.129,60.017,60.017,0,0,1-2.14-11.661A60.04,60.04,0,0,1,105.663,269a60.676,60.676,0,0,1,2.14,11.661" transform="translate(-75.925 -192.751)" fill="#ca373c"/>
    <path id="Path_2691" data-name="Path 2691" d="M136.147,296.495a10.486,10.486,0,0,1,1.415-8.918,10.485,10.485,0,0,1-1.415,8.918" transform="translate(-101.438 -214.957)" fill="#ca373c"/>
    <path id="Path_2692" data-name="Path 2692" d="M205.273,322.852a104.6,104.6,0,0,1,14.395-5.981,103.5,103.5,0,0,1,15.047-4.069,103.52,103.52,0,0,1-14.395,5.981,104.659,104.659,0,0,1-15.047,4.069" transform="translate(-153.436 -233.812)" fill="#ca373c"/>
    <path id="Path_2693" data-name="Path 2693" d="M273.658,345.65a20.352,20.352,0,0,1,12.739,0,20.353,20.353,0,0,1-12.739,0" transform="translate(-204.552 -257.6)" fill="#ca373c"/>
    <path id="Path_2694" data-name="Path 2694" d="M215.884,175.472l5.473,5.379-3.539,3.539s4.01,3.728.991,6.936c-1.5,1.6-10.088,11.314-15,15.1-5.068,3.9-14.06,9.531-14.06,9.531l-.4-5.017a2.507,2.507,0,0,0-2.218-2.291l-4.646-.523Z" transform="translate(-136.398 -131.161)" fill="#ca373c"/>
    <path id="Path_2695" data-name="Path 2695" d="M170.495,369.5H93.6a.557.557,0,0,1-.556-.556v-3.953a.557.557,0,0,1,.556-.556h76.9a.557.557,0,0,1,.556.556v3.953a.557.557,0,0,1-.556.556m-76.9-4.813a.3.3,0,0,0-.3.3v3.953a.3.3,0,0,0,.3.3h76.9a.3.3,0,0,0,.3-.3v-3.953a.3.3,0,0,0-.3-.3Z" transform="translate(-69.546 -272.404)" fill="#ca373c"/>
    <path id="Path_2696" data-name="Path 2696" d="M182.688,369.464H109.7v-4.813h72.986a.548.548,0,0,1,.548.548v3.717a.548.548,0,0,1-.548.548" transform="translate(-81.999 -272.567)" fill="#ca373c"/>
  </g>
</svg>
