<svg xmlns="http://www.w3.org/2000/svg" width="81.937" height="81.937" viewBox="0 0 81.937 81.937">
  <g id="Group_29210" data-name="Group 29210" transform="translate(-1564.273 -1861.089)">
    <circle id="Ellipse_62" data-name="Ellipse 62" cx="40.768" cy="40.768" r="40.768" transform="translate(1564.473 1861.289)" fill="none" stroke="#818386" stroke-width="0.4"/>
    <path id="Path_99251" data-name="Path 99251" d="M196.378,298.256H184.952a.636.636,0,0,1-.318-.081,21.422,21.422,0,0,1-7.435-7.086,39.982,39.982,0,0,1-4.379-9.018A56.222,56.222,0,0,1,170.155,271l-.005-.074v-7.338a1.949,1.949,0,0,1,1.948-1.948h37.135a1.949,1.949,0,0,1,1.948,1.948v7.338l-.005.074a56.223,56.223,0,0,1-2.665,11.072,39.929,39.929,0,0,1-4.379,9.018,21.423,21.423,0,0,1-7.435,7.086A.651.651,0,0,1,196.378,298.256Zm-11.258-1.331h11.087c5.834-3.248,9.226-10.1,11.045-15.293a56.124,56.124,0,0,0,2.594-10.746v-7.3a.618.618,0,0,0-.617-.617H172.1a.618.618,0,0,0-.617.617v7.3a55.977,55.977,0,0,0,2.6,10.77C175.9,286.843,179.292,293.683,185.12,296.925Z" transform="translate(1411.916 1629.286)" fill="#bb0e1f"/>
    <path id="Path_99252" data-name="Path 99252" d="M196.378,298.256H184.952a.636.636,0,0,1-.318-.081,21.422,21.422,0,0,1-7.435-7.086,39.982,39.982,0,0,1-4.379-9.018A56.222,56.222,0,0,1,170.155,271l-.005-.074v-7.338a1.949,1.949,0,0,1,1.948-1.948h37.135a1.949,1.949,0,0,1,1.948,1.948v7.338l-.005.074a56.223,56.223,0,0,1-2.665,11.072,39.929,39.929,0,0,1-4.379,9.018,21.423,21.423,0,0,1-7.435,7.086A.651.651,0,0,1,196.378,298.256Zm-11.258-1.331h11.087c5.834-3.248,9.226-10.1,11.045-15.293a56.124,56.124,0,0,0,2.594-10.746v-7.3a.618.618,0,0,0-.617-.617H172.1a.618.618,0,0,0-.617.617v7.3a55.977,55.977,0,0,0,2.6,10.77C175.9,286.843,179.292,293.683,185.12,296.925Z" transform="translate(1411.916 1629.286)" fill="none" stroke="#bb0e1f" stroke-width="0.115"/>
    <path id="Path_99253" data-name="Path 99253" d="M189.208,285.406h-5.285a.664.664,0,0,1-.572-.326.672.672,0,0,1-.016-.656,53.7,53.7,0,0,0,5.209-16.764l0-3.374a.667.667,0,0,1,.667-.664,10.892,10.892,0,0,1,0,21.784Zm-4.2-1.334h4.193a9.559,9.559,0,0,0,.667-19.1V267.7l-.005.076A54.639,54.639,0,0,1,185.013,284.072Z" transform="translate(1433.221 1632.509)" fill="#bb0e1f"/>
    <path id="Path_99254" data-name="Path 99254" d="M189.208,285.406h-5.285a.664.664,0,0,1-.572-.326.672.672,0,0,1-.016-.656,53.7,53.7,0,0,0,5.209-16.764l0-3.374a.667.667,0,0,1,.667-.664,10.892,10.892,0,0,1,0,21.784Zm-4.2-1.334h4.193a9.559,9.559,0,0,0,.667-19.1V267.7l-.005.076A54.639,54.639,0,0,1,185.013,284.072Z" transform="translate(1433.221 1632.509)" fill="none" stroke="#bb0e1f" stroke-width="0.115"/>
    <path id="Path_99255" data-name="Path 99255" d="M184.425,281.268a.668.668,0,0,1-.554-.3.66.66,0,0,1-.055-.635,55.225,55.225,0,0,0,3.909-14.091v-1.082a.665.665,0,0,1,.286-.546.677.677,0,0,1,.612-.079l2.775,1.021.018.01a8.114,8.114,0,0,1-3.022,15.645l-3.957.058Zm4.631-15.154v.165l-.005.074a55.944,55.944,0,0,1-3.613,13.566l2.943-.039a6.8,6.8,0,0,0,6.795-6.784,6.869,6.869,0,0,0-4.253-6.293Z" transform="translate(1434.037 1633.93)" fill="#bb0e1f"/>
    <path id="Path_99256" data-name="Path 99256" d="M184.425,281.268a.668.668,0,0,1-.554-.3.66.66,0,0,1-.055-.635,55.225,55.225,0,0,0,3.909-14.091v-1.082a.665.665,0,0,1,.286-.546.677.677,0,0,1,.612-.079l2.775,1.021.018.01a8.114,8.114,0,0,1-3.022,15.645l-3.957.058Zm4.631-15.154v.165l-.005.074a55.944,55.944,0,0,1-3.613,13.566l2.943-.039a6.8,6.8,0,0,0,6.795-6.784,6.869,6.869,0,0,0-4.253-6.293Z" transform="translate(1434.037 1633.93)" fill="none" stroke="#bb0e1f" stroke-width="0.115"/>
    <path id="Path_99257" data-name="Path 99257" d="M210.514,264.857h-39.7a.667.667,0,1,1,0-1.334h39.7a.667.667,0,1,1,0,1.334" transform="translate(1411.916 1632.348)" fill="#bb0e1f"/>
    <path id="Path_99258" data-name="Path 99258" d="M210.514,264.857h-39.7a.667.667,0,1,1,0-1.334h39.7a.667.667,0,1,1,0,1.334Z" transform="translate(1411.916 1632.348)" fill="none" stroke="#bb0e1f" stroke-width="0.115"/>
    <path id="Path_99265" data-name="Path 99265" d="M178.751,269.63a.657.657,0,0,1-.357-.1.666.666,0,0,1-.2-.919c.173-.268.357-.53.536-.785.515-.735,1.045-1.494.953-1.953-.013-.066-.05-.268-.459-.53a4.148,4.148,0,0,1-1.959-2.72,2.151,2.151,0,0,1,.57-1.783c1.476-1.6,1.678-2.108.3-3.445a.667.667,0,0,1,.927-.958c2.274,2.206,1.284,3.647-.247,5.306a.829.829,0,0,0-.226.714,2.834,2.834,0,0,0,1.357,1.767,2.175,2.175,0,0,1,1.045,1.4c.2,1.016-.5,2.011-1.174,2.972-.171.242-.347.5-.5.743A.657.657,0,0,1,178.751,269.63Z" transform="translate(1423.443 1620.52)" fill="#bb0e1f"/>
    <path id="Path_99266" data-name="Path 99266" d="M178.751,269.63a.657.657,0,0,1-.357-.1.666.666,0,0,1-.2-.919c.173-.268.357-.53.536-.785.515-.735,1.045-1.494.953-1.953-.013-.066-.05-.268-.459-.53a4.148,4.148,0,0,1-1.959-2.72,2.151,2.151,0,0,1,.57-1.783c1.476-1.6,1.678-2.108.3-3.445a.667.667,0,0,1,.927-.958c2.274,2.206,1.284,3.647-.247,5.306a.829.829,0,0,0-.226.714,2.834,2.834,0,0,0,1.357,1.767,2.175,2.175,0,0,1,1.045,1.4c.2,1.016-.5,2.011-1.174,2.972-.171.242-.347.5-.5.743A.657.657,0,0,1,178.751,269.63Z" transform="translate(1423.443 1620.52)" fill="none" stroke="#bb0e1f" stroke-width="0.115"/>
    <path id="Path_99267" data-name="Path 99267" d="M181.665,269.63a.657.657,0,0,1-.357-.1.666.666,0,0,1-.2-.919c.173-.268.354-.53.536-.785.515-.735,1.045-1.494.953-1.953-.013-.066-.05-.268-.459-.53a4.148,4.148,0,0,1-1.959-2.72,2.151,2.151,0,0,1,.57-1.783c1.475-1.6,1.678-2.108.3-3.445a.667.667,0,0,1,.927-.958c2.274,2.206,1.284,3.647-.247,5.306a.829.829,0,0,0-.226.714,2.834,2.834,0,0,0,1.357,1.767,2.175,2.175,0,0,1,1.045,1.4c.2,1.016-.5,2.011-1.174,2.972-.171.242-.347.5-.5.74A.653.653,0,0,1,181.665,269.63Z" transform="translate(1428.18 1620.52)" fill="#bb0e1f"/>
    <path id="Path_99268" data-name="Path 99268" d="M181.665,269.63a.657.657,0,0,1-.357-.1.666.666,0,0,1-.2-.919c.173-.268.354-.53.536-.785.515-.735,1.045-1.494.953-1.953-.013-.066-.05-.268-.459-.53a4.148,4.148,0,0,1-1.959-2.72,2.151,2.151,0,0,1,.57-1.783c1.475-1.6,1.678-2.108.3-3.445a.667.667,0,0,1,.927-.958c2.274,2.206,1.284,3.647-.247,5.306a.829.829,0,0,0-.226.714,2.834,2.834,0,0,0,1.357,1.767,2.175,2.175,0,0,1,1.045,1.4c.2,1.016-.5,2.011-1.174,2.972-.171.242-.347.5-.5.74A.653.653,0,0,1,181.665,269.63Z" transform="translate(1428.18 1620.52)" fill="none" stroke="#bb0e1f" stroke-width="0.115"/>
  </g>
</svg>
