<svg xmlns="http://www.w3.org/2000/svg" width="81.937" height="81.937" viewBox="0 0 81.937 81.937">
  <g id="Group_29204" data-name="Group 29204" transform="translate(-1295.89 -1725.4)">
    <circle id="Ellipse_67" data-name="Ellipse 67" cx="40.768" cy="40.768" r="40.768" transform="translate(1296.09 1725.6)" fill="none" stroke="#818386" stroke-width="0.4"/>
    <path id="Path_99242" data-name="Path 99242" d="M113.189,232.545v-.068a3.423,3.423,0,0,0-.617-1.646l-4.248-11.649v-2.124a8.246,8.246,0,0,0-8.223-8.223H86.257a8.247,8.247,0,0,0-8.223,8.223v2.124l-4.521,12.2c-.071.137-.139.344-.207.48l-.2.412v10h1.37v-4.248h37.416v4.248h1.37v-9.389a.615.615,0,0,0-.068-.341M79,220.551h4.66v2.056a.646.646,0,0,0,.685.685h17.68a.648.648,0,0,0,.685-.685v-2.056h4.66l3.014,8.294a4.667,4.667,0,0,0-1.987-.412H77.9a4.127,4.127,0,0,0-2.056.48Zm22.34,1.37H93.866v-6.579h7.469Zm-8.84,0H85.026v-6.579H92.5ZM79.4,217.057a6.874,6.874,0,0,1,6.852-6.852H100.1a6.874,6.874,0,0,1,6.852,6.852v2.124h-4.248V214.66a.648.648,0,0,0-.685-.685H84.341a.646.646,0,0,0-.685.685v4.521H79.4ZM74.471,233.23a3.9,3.9,0,0,1,.2-1.234l.068-.137A3.392,3.392,0,0,1,77.9,229.8h30.563a3.364,3.364,0,0,1,2.878,1.575l.48,1.37c0,.137.068.344.068.481v3.426H74.471Z" transform="translate(1254.166 1543.453)" fill="#bb0e1f"/>
    <path id="Path_99243" data-name="Path 99243" d="M66.348,245.384v2.195h1.371v-2.195H79.231v2.195H80.6v-2.195h.549a.648.648,0,0,0,.685-.685V224.209a3.394,3.394,0,0,0-3.426-3.426H74.3v-6.372h4.933a.631.631,0,0,0,.549-.276.534.534,0,0,0,.137-.549l-1.1-5.275a3.443,3.443,0,0,0-3.358-2.741H71.486a3.447,3.447,0,0,0-3.358,2.741l-1.095,5.275a.534.534,0,0,0,.137.549.846.846,0,0,0,.549.276h5.138v6.372H68.54a3.392,3.392,0,0,0-3.426,3.426V244.7a.646.646,0,0,0,.685.685Zm3.082-36.867a2.05,2.05,0,0,1,1.987-1.646h3.975a1.991,1.991,0,0,1,1.987,1.646l.89,4.453H68.54ZM80.4,233.871H66.484V228.73H80.4Zm-13.912,1.37H80.4v8.772H66.484Zm2.056-13.088h9.8a2.02,2.02,0,0,1,2.058,2.056v3.153H66.484v-3.153a2.06,2.06,0,0,1,2.056-2.056" transform="translate(1241.184 1538.149)" fill="#bb0e1f"/>
    <rect id="Rectangle_9911" data-name="Rectangle 9911" width="3.631" height="1.371" transform="translate(1312.807 1768.665)" fill="#bb0e1f"/>
    <rect id="Rectangle_9912" data-name="Rectangle 9912" width="3.631" height="1.371" transform="translate(1312.807 1762.222)" fill="#bb0e1f"/>
    <rect id="Rectangle_9913" data-name="Rectangle 9913" width="3.631" height="1.371" transform="translate(1312.807 1775.518)" fill="#bb0e1f"/>
  </g>
</svg>
