<svg xmlns="http://www.w3.org/2000/svg" width="81.937" height="81.937" viewBox="0 0 81.937 81.937">
  <g id="Group_29205" data-name="Group 29205" transform="translate(-1428.241 -1725.4)">
    <circle id="Ellipse_65" data-name="Ellipse 65" cx="40.768" cy="40.768" r="40.768" transform="translate(1428.441 1725.6)" fill="none" stroke="#818386" stroke-width="0.4"/>
    <path id="Path_99222" data-name="Path 99222" d="M131.19,225.369a5.592,5.592,0,0,0,3.592-1.3l2.917,3.214-3.106,2.851-.454-.454a.536.536,0,0,0-.759,0l-13.1,13.1a3.375,3.375,0,0,0,4.773,4.773l13.1-13.1a.54.54,0,0,0,0-.759l-.457-.454,2.628-2.862,2.7,2.941-.375.375a.536.536,0,0,0,0,.759l13.1,13.1a3.376,3.376,0,0,0,5.763-2.387,3.335,3.335,0,0,0-.99-2.387l-13.1-13.1a.536.536,0,0,0-.759,0l-.536.536-3.067-2.817,3.237-3.529a8.594,8.594,0,0,0,10.851-1.053c3.2-3.2,6.978-12.224,3.536-15.669s-12.466.333-15.671,3.534a8.6,8.6,0,0,0-1.053,10.851l-3.726,3.424-3.274-3.035.079-.076a5.622,5.622,0,0,0,0-7.942l-8.1-8.1a.547.547,0,0,0-.756,0l-9.068,9.066a.536.536,0,0,0,0,.759l8.1,8.1a5.6,5.6,0,0,0,3.972,1.643M124.3,246.793a2.3,2.3,0,0,1-3.258-3.256l12.72-12.72,3.256,3.256Zm22.744-15.976,12.72,12.72a2.3,2.3,0,0,1,0,3.256,2.309,2.309,0,0,1-3.256,0l-12.72-12.72Zm-1.672.155-1.586,1.586-2.73-2.975,1.281-1.4Zm.407-19.531c2.912-2.914,11.3-6.388,14.151-3.537s-.622,11.24-3.536,14.151a7.509,7.509,0,0,1-10.326.263l-.554-.554a7.509,7.509,0,0,1,.265-10.323m-.761,11.374c.095.092.194.173.289.26l.139.139-3.529,3.844-.005.005-.008.008-4.962,5.408-1.586-1.586,9.263-8.507.142.136c.084.1.165.2.257.292m-5.574,2.867-.95.874-2.933-3.229.646-.646Zm-10.877-18.743,7.719,7.721a4.546,4.546,0,0,1,0,6.424l-1.882,1.882a4.549,4.549,0,0,1-6.427,0l-7.721-7.719Z" transform="translate(1328.705 1538.278)" fill="#bb0e1f"/>
    <path id="Path_99223" data-name="Path 99223" d="M131.19,225.369a5.592,5.592,0,0,0,3.592-1.3l2.917,3.214-3.106,2.851-.454-.454a.536.536,0,0,0-.759,0l-13.1,13.1a3.375,3.375,0,0,0,4.773,4.773l13.1-13.1a.54.54,0,0,0,0-.759l-.457-.454,2.628-2.862,2.7,2.941-.375.375a.536.536,0,0,0,0,.759l13.1,13.1a3.376,3.376,0,0,0,5.763-2.387,3.335,3.335,0,0,0-.99-2.387l-13.1-13.1a.536.536,0,0,0-.759,0l-.536.536-3.067-2.817,3.237-3.529a8.594,8.594,0,0,0,10.851-1.053c3.2-3.2,6.978-12.224,3.536-15.669s-12.466.333-15.671,3.534a8.6,8.6,0,0,0-1.053,10.851l-3.726,3.424-3.274-3.035.079-.076a5.622,5.622,0,0,0,0-7.942l-8.1-8.1a.547.547,0,0,0-.756,0l-9.068,9.066a.536.536,0,0,0,0,.759l8.1,8.1A5.6,5.6,0,0,0,131.19,225.369ZM124.3,246.793a2.3,2.3,0,0,1-3.258-3.256l12.72-12.72,3.256,3.256Zm22.744-15.976,12.72,12.72a2.3,2.3,0,0,1,0,3.256,2.309,2.309,0,0,1-3.256,0l-12.72-12.72Zm-1.672.155-1.586,1.586-2.73-2.975,1.281-1.4Zm.407-19.531c2.912-2.914,11.3-6.388,14.151-3.537s-.622,11.24-3.536,14.151a7.509,7.509,0,0,1-10.326.263l-.554-.554A7.509,7.509,0,0,1,145.777,211.441Zm-.761,11.374c.095.092.194.173.289.26l.139.139-3.529,3.844-.005.005-.008.008-4.962,5.408-1.586-1.586,9.263-8.507.142.136C144.842,222.621,144.924,222.72,145.016,222.815Zm-5.574,2.867-.95.874-2.933-3.229.646-.646Zm-10.877-18.743,7.719,7.721a4.546,4.546,0,0,1,0,6.424l-1.882,1.882a4.549,4.549,0,0,1-6.427,0l-7.721-7.719Z" transform="translate(1328.705 1538.278)" fill="none" stroke="#bb0e1f" stroke-width="0.098"/>
  </g>
</svg>
