<svg id="Group_57" data-name="Group 57" xmlns="http://www.w3.org/2000/svg" xmlns:xlink="http://www.w3.org/1999/xlink" width="29.324" height="37.717" viewBox="0 0 29.324 37.717">
  <defs>
    <clipPath id="clip-path">
      <rect id="Rectangle_73" data-name="Rectangle 73" width="29.324" height="37.717" transform="translate(0 0)" fill="#fff"/>
    </clipPath>
  </defs>
  <g id="Group_56" data-name="Group 56" clip-path="url(#clip-path)">
    <path id="Path_2661" data-name="Path 2661" d="M14.662,37.717h0a1.3,1.3,0,0,1-.96-.419C13.142,36.7,0,22.462,0,14.662a14.662,14.662,0,0,1,29.324,0c0,7.8-13.142,22.035-13.7,22.636a1.305,1.305,0,0,1-.96.419m0-35.094A12.052,12.052,0,0,0,2.623,14.662c0,5.177,7.955,15.2,12.039,19.792C18.746,29.86,26.7,19.839,26.7,14.662A12.053,12.053,0,0,0,14.662,2.623" fill="#fff"/>
    <path id="Path_2662" data-name="Path 2662" d="M14.662,20.622a6.6,6.6,0,1,1,6.6-6.6,6.608,6.608,0,0,1-6.6,6.6m0-10.579a3.978,3.978,0,1,0,3.979,3.979,3.983,3.983,0,0,0-3.979-3.979" fill="#fff"/>
  </g>
</svg>
