<svg xmlns="http://www.w3.org/2000/svg" xmlns:xlink="http://www.w3.org/1999/xlink" width="124" height="124" viewBox="0 0 124 124">
  <defs>
    <clipPath id="clip-path">
      <rect id="Rectangle_174" data-name="Rectangle 174" width="124" height="124" fill="#ca373c"/>
    </clipPath>
  </defs>
  <g id="Group_132" data-name="Group 132" transform="translate(22 22)">
    <g id="Group_131" data-name="Group 131" transform="translate(-22 -22)" clip-path="url(#clip-path)">
      <path id="Path_2795" data-name="Path 2795" d="M62,3.341a58.676,58.676,0,0,1,22.832,112.71A58.675,58.675,0,0,1,39.168,7.949,58.29,58.29,0,0,1,62,3.341M62,0a62,62,0,1,0,62,62A62,62,0,0,0,62,0" fill="#ca373c"/>
      <path id="Path_2796" data-name="Path 2796" d="M71.739,170.205a2.376,2.376,0,0,1,2.03-.974q8.787-.524,17.572-1.076c1.5-.093,3-.2,4.5-.3,1.193-.076,1.592.146,2.077,1.2q4.186,9.059,8.365,18.122a1.61,1.61,0,0,1-.12,1.969,1.627,1.627,0,0,1-1.967.22c-1.818-.714-3.642-1.41-5.567-2.152L91.375,199.79h1.012q4.679,0,9.358,0c1.447,0,1.948.494,1.95,1.938q.008,9.656,0,19.311c0,1.452-.5,1.967-1.933,1.947a64.009,64.009,0,0,1-7.043-.206,9.889,9.889,0,0,1-7.471-5.2q-6.182-10.61-12.291-21.262a10.141,10.141,0,0,1-.306-9.933c1.606-3.309,3.272-6.59,4.948-9.958l-4.625-2.868c-.7-.433-1.426-.826-2.083-1.314a9.772,9.772,0,0,1-1.15-1.187Zm6.405,1.69-.021.187q1.805,1.118,3.61,2.237c1.366.849,1.5,1.341.781,2.793q-2.576,5.17-5.156,10.337a7.645,7.645,0,0,0,.257,7.7q3.05,5.255,6.087,10.517c.134.231.293.447.488.742.251-.419.442-.73.624-1.047q5.794-10.049,11.586-20.1c.794-1.378,1.226-1.534,2.685-.978.82.312,1.64.625,2.463.93.191.071.395.109.716.195-2.22-4.809-4.37-9.488-6.561-14.149a1.083,1.083,0,0,0-.87-.385c-3.2.159-6.4.354-9.594.552-2.365.146-4.73.311-7.095.467m22.584,48.06V202.692c-3.49,0-6.916-.01-10.342.021a1.031,1.031,0,0,0-.7.466q-1.808,2.876-3.542,5.8a1.051,1.051,0,0,0,0,.885c1.2,2.148,2.424,4.287,3.684,6.4a6.981,6.981,0,0,0,5.255,3.649,49.671,49.671,0,0,0,5.637.043" transform="translate(-53.304 -124.713)" fill="#ca373c"/>
      <path id="Path_2797" data-name="Path 2797" d="M230.46,219.293h13.42c-.167-.327-.292-.589-.432-.843q-2.636-4.755-5.275-9.508c-.757-1.366-.584-1.981.774-2.774q8.182-4.775,16.366-9.547c1.433-.835,2.11-.64,2.843.828,1.519,3.039,3.045,6.074,4.542,9.123a10.12,10.12,0,0,1-.439,10.141q-6.686,11.345-13.41,22.669a8.862,8.862,0,0,1-7.831,4.6c-3.174.065-6.35.025-9.525.031H230.46c0,1.147,0,2.214,0,3.281a2.953,2.953,0,0,1-.064,1.175,2.752,2.752,0,0,1-.99,1.238,1.251,1.251,0,0,1-1.581-.479c-.789-1-1.565-2.014-2.342-3.025q-5.935-7.717-11.867-15.436c-.8-1.038-.786-1.608.065-2.545q6.919-7.618,13.846-15.228c.1-.1.194-.207.289-.312a1.477,1.477,0,0,1,1.689-.473,1.462,1.462,0,0,1,.946,1.478c.026,1.3.01,2.608.011,3.912,0,.535,0,1.07,0,1.7m-14.1,10.29,11.149,14.477c.029-.388.044-.521.048-.655.046-1.982.37-2.3,2.357-2.3q5.359,0,10.719,0a6.387,6.387,0,0,0,5.861-3.406q4.251-7.31,8.517-14.611c.137-.235.256-.481.454-.856h-1.034q-12.463,0-24.926,0c-1.492,0-1.935-.443-1.946-1.913-.007-.921,0-1.842,0-2.764l-.187-.068-11.011,12.1M255.963,199.6l-14.781,8.628a1.967,1.967,0,0,0,.1.318c1.908,3.443,3.811,6.889,5.747,10.316a1.067,1.067,0,0,0,.782.444q4.422.047,8.846,0a1.129,1.129,0,0,0,.816-.413c.854-1.3,1.694-2.617,2.458-3.974a7.159,7.159,0,0,0,.2-7c-.694-1.425-1.407-2.841-2.116-4.259-.67-1.338-1.346-2.672-2.047-4.063" transform="translate(-158.287 -145.729)" fill="#ca373c"/>
      <path id="Path_2798" data-name="Path 2798" d="M202.1,90.9l5.478-2.774a7.513,7.513,0,0,1,.762-.374,1.458,1.458,0,0,1,1.652.28,1.4,1.4,0,0,1,.278,1.648c-.161.392-.357.77-.542,1.152q-4.736,9.783-9.474,19.565c-.649,1.34-.927,1.494-2.371,1.332q-10.091-1.134-20.183-2.271c-.225-.025-.447-.076-.672-.1a1.394,1.394,0,0,1-1.353-1.091,1.462,1.462,0,0,1,.8-1.7q2.517-1.5,5.025-3.019c.264-.159.525-.326.871-.541l-6.643-12.568c-.21.336-.378.58-.522.839q-2.664,4.788-5.323,9.578c-.789,1.417-1.449,1.584-2.812.717q-7.493-4.766-14.983-9.536c-1.323-.843-1.47-1.472-.654-2.8q2.021-3.3,4.052-6.585a10.087,10.087,0,0,1,8.9-5.188c8.334-.044,16.669-.057,25,.055a8.564,8.564,0,0,1,7.32,4.293c1.706,2.705,3.252,5.511,4.871,8.272.155.264.326.519.518.822m-20.583,16.031c.55.079.854.131,1.159.166,4.787.545,9.575,1.075,14.358,1.648a.892.892,0,0,0,1.1-.593c2.4-5,4.824-10,7.238-14.994.1-.208.168-.432.27-.7a1.363,1.363,0,0,0-.276.044c-.912.456-1.821.917-2.732,1.374-1.314.659-1.9.488-2.647-.791-1.745-2.984-3.508-5.956-5.216-8.961a7,7,0,0,0-6.622-3.8c-4.48.04-8.961.01-13.442.012-.294,0-.587.029-.969.05.19.39.316.668.458.937q5.559,10.516,11.121,21.031c.714,1.351.545,1.948-.746,2.73-.941.57-1.885,1.137-3.053,1.842m-13.708-8.33c2.02-3.633,4-7.189,5.96-10.761a.991.991,0,0,0-.068-.769c-1.017-2.085-2.047-4.163-3.113-6.223a1.041,1.041,0,0,0-.747-.486c-1.926-.032-3.854-.047-5.778.014a6.56,6.56,0,0,0-5.332,2.737c-1.572,2.2-2.925,4.561-4.406,6.906l13.485,8.582" transform="translate(-112.145 -57.534)" fill="#ca373c"/>
    </g>
  </g>
</svg>
