<svg xmlns="http://www.w3.org/2000/svg" width="81.937" height="81.937" viewBox="0 0 81.937 81.937">
  <g id="Group_29206" data-name="Group 29206" transform="translate(-1564.273 -1725.4)">
    <circle id="Ellipse_61" data-name="Ellipse 61" cx="40.768" cy="40.768" r="40.768" transform="translate(1564.473 1725.6)" fill="none" stroke="#818386" stroke-width="0.4"/>
    <path id="Path_99189" data-name="Path 99189" d="M180.221,207.946,179.5,211.5h1.441l.719-3.558Z" transform="translate(1427.113 1542.009)" fill="#bb0e1f"/>
    <rect id="Rectangle_9908" data-name="Rectangle 9908" width="1.441" height="3.558" transform="translate(1610.521 1749.956)" fill="#bb0e1f"/>
    <path id="Path_99190" data-name="Path 99190" d="M183.644,207.946H182.2l.722,3.558h1.439Z" transform="translate(1431.506 1542.009)" fill="#bb0e1f"/>
    <path id="Path_99191" data-name="Path 99191" d="M219.629,226.605H215.5V210.37a6.077,6.077,0,0,0-11.967-1.5l-.026.008v.087l-.032.126a4.965,4.965,0,0,0-3.7,2.754.72.72,0,0,0,.651,1.032h7.606a.718.718,0,0,0,.609-.336.729.729,0,0,0,.042-.7,4.958,4.958,0,0,0-3.445-2.7,4.362,4.362,0,0,1,8.554,1.223v16.236H189.9v-1.147H176.451v1.147h-6.616a2.7,2.7,0,0,0-.638,5.319v5.193a9.474,9.474,0,0,0,5.569,8.619,6.12,6.12,0,0,0-1.515,4.027h2.56a3.6,3.6,0,0,1,2.019-3.221c.276.024.551.042.835.042H210.38a9.537,9.537,0,0,0,1.294-.1,3.606,3.606,0,0,1,2.121,3.279h2.56a6.1,6.1,0,0,0-1.7-4.214,9.468,9.468,0,0,0,5.191-8.436v-5.128a2.7,2.7,0,0,0-.218-5.387m-17.8-15.167a3.47,3.47,0,0,1,4.8,0Zm-23.671,15.729h10.029v12.592H178.157Zm-9.318,2.142a1,1,0,0,1,1-1h6.616v1.99h-6.616a1,1,0,0,1-1-1m49.3,7.808a7.769,7.769,0,0,1-7.758,7.761H178.664a7.768,7.768,0,0,1-7.761-7.761v-5.107h5.548v9.454H189.9v-9.454h28.242Zm1.491-6.813H189.9v-1.99h29.733a1,1,0,1,1,0,1.99" transform="translate(1407.012 1536.065)" fill="#bb0e1f"/>
  </g>
</svg>
