<svg xmlns="http://www.w3.org/2000/svg" width="81.937" height="81.937" viewBox="0 0 81.937 81.937">
  <g id="Group_29209" data-name="Group 29209" transform="translate(-1428.241 -1861.089)">
    <circle id="Ellipse_66" data-name="Ellipse 66" cx="40.768" cy="40.768" r="40.768" transform="translate(1428.441 1861.289)" fill="none" stroke="#818386" stroke-width="0.4"/>
    <path id="Path_99276" data-name="Path 99276" d="M157.916,283.011h-3.434v-5.818a2.965,2.965,0,0,0-2.962-2.961h-2.872v-3.384a2.761,2.761,0,0,0-1.163-2.253l-6.167-4.384a2.693,2.693,0,0,0-.893-.41v-1.856h5.156a2.306,2.306,0,0,0,2.3-2.3v-.971a2.306,2.306,0,0,0-2.3-2.3h-5.154v-.751a.709.709,0,0,0-1.418,0V263.8a2.985,2.985,0,0,0-.893.41l-6.167,4.384a2.768,2.768,0,0,0-1.163,2.253v3.384h-2.872a2.965,2.965,0,0,0-2.962,2.961v5.818h-3.431a2.962,2.962,0,0,0-2.959,2.959V306a2.734,2.734,0,0,0,2.733,2.733h5.078l9.523,0h22.248a2.734,2.734,0,0,0,2.73-2.733v-20.04A2.961,2.961,0,0,0,157.916,283.011Zm-17.488-25.223h5.156a.885.885,0,0,1,.885.885v.971a.885.885,0,0,1-.885.885h-5.156Zm-15.474,49.524h-3.663A1.316,1.316,0,0,1,119.975,306l0-20.032a1.548,1.548,0,0,1,1.544-1.544h3.434Zm7.254-36.465a1.343,1.343,0,0,1,.567-1.1l6.167-4.382a1.349,1.349,0,0,1,1.565,0l6.17,4.382a1.368,1.368,0,0,1,.567,1.1v3.384H132.208Zm9.919,36.465h-4.815v-8.837a1.115,1.115,0,0,1,1.113-1.111h2.6a1.115,1.115,0,0,1,1.113,1.111l0,8.837Zm10.94-24.3v24.3h-9.525v-8.837a2.529,2.529,0,0,0-2.528-2.526h-2.6a2.531,2.531,0,0,0-2.528,2.526l0,8.837h-9.517V277.19a1.546,1.546,0,0,1,1.544-1.541h23.6a1.546,1.546,0,0,1,1.544,1.541ZM159.46,306a1.316,1.316,0,0,1-1.315,1.315h-3.663l0-22.884h3.434a1.546,1.546,0,0,1,1.544,1.544Z" transform="translate(1328.063 1618.353)" fill="#bb0e1f"/>
    <path id="Path_99277" data-name="Path 99277" d="M128.409,259.862a2.888,2.888,0,1,0,2.888,2.888,2.891,2.891,0,0,0-2.888-2.888m0,4.369a1.472,1.472,0,1,1,1.47-1.47,1.47,1.47,0,0,1-1.47,1.47" transform="translate(1339.373 1626.397)" fill="#bb0e1f"/>
    <path id="Path_99278" data-name="Path 99278" d="M127.335,264.337h-2.116a2.072,2.072,0,0,0-2.074,2.074V267.5a2.077,2.077,0,0,0,2.074,2.074h2.116a2.072,2.072,0,0,0,2.074-2.074v-1.084a2.078,2.078,0,0,0-2.074-2.074m.659,3.156a.663.663,0,0,1-.659.659h-2.116a.661.661,0,0,1-.656-.659v-1.084a.661.661,0,0,1,.656-.659h2.116a.663.663,0,0,1,.659.659Z" transform="translate(1335.51 1633.671)" fill="#bb0e1f"/>
    <path id="Path_99279" data-name="Path 99279" d="M131.9,264.337h-2.116a2.072,2.072,0,0,0-2.074,2.074V267.5a2.077,2.077,0,0,0,2.074,2.074H131.9a2.072,2.072,0,0,0,2.074-2.074v-1.084a2.079,2.079,0,0,0-2.074-2.074m.659,3.156a.663.663,0,0,1-.659.659h-2.116a.661.661,0,0,1-.656-.659v-1.084a.661.661,0,0,1,.656-.659H131.9a.663.663,0,0,1,.659.659Z" transform="translate(1342.932 1633.671)" fill="#bb0e1f"/>
    <path id="Path_99280" data-name="Path 99280" d="M127.335,267.117h-2.116a2.072,2.072,0,0,0-2.074,2.074v1.084a2.077,2.077,0,0,0,2.074,2.074h2.116a2.072,2.072,0,0,0,2.074-2.074v-1.084a2.078,2.078,0,0,0-2.074-2.074m.659,3.158a.663.663,0,0,1-.659.659h-2.116a.661.661,0,0,1-.656-.659v-1.084a.661.661,0,0,1,.656-.659h2.116a.663.663,0,0,1,.659.659Z" transform="translate(1335.51 1638.19)" fill="#bb0e1f"/>
    <path id="Path_99281" data-name="Path 99281" d="M131.9,267.117h-2.116a2.072,2.072,0,0,0-2.074,2.074v1.084a2.077,2.077,0,0,0,2.074,2.074H131.9a2.072,2.072,0,0,0,2.074-2.074v-1.084a2.079,2.079,0,0,0-2.074-2.074m.659,3.158a.663.663,0,0,1-.659.659h-2.116a.661.661,0,0,1-.656-.659v-1.084a.661.661,0,0,1,.656-.659H131.9a.663.663,0,0,1,.659.659Z" transform="translate(1342.932 1638.19)" fill="#bb0e1f"/>
  </g>
</svg>
