<svg xmlns="http://www.w3.org/2000/svg" xmlns:xlink="http://www.w3.org/1999/xlink" width="21.025" height="30.045" viewBox="0 0 21.025 30.045">
  <defs>
    <clipPath id="clip-path">
      <rect id="Rectangle_9482" data-name="Rectangle 9482" width="21.025" height="30.045" transform="translate(0 0)" fill="#ca373c"/>
    </clipPath>
  </defs>
  <g id="Group_28211" data-name="Group 28211" clip-path="url(#clip-path)">
    <path id="Path_97177" data-name="Path 97177" d="M16.577,0H4.447A4.452,4.452,0,0,0,0,4.447V25.6a4.452,4.452,0,0,0,4.447,4.448h12.13A4.452,4.452,0,0,0,21.024,25.6V4.447A4.452,4.452,0,0,0,16.577,0M4.447,2.052h12.13a2.4,2.4,0,0,1,2.4,2.395V21.392H2.051V4.447a2.4,2.4,0,0,1,2.4-2.395m12.13,25.941H4.447a2.4,2.4,0,0,1-2.4-2.4V23.444H18.973V25.6a2.4,2.4,0,0,1-2.4,2.4" transform="translate(0 0)" fill="#ca373c"/>
    <path id="Path_97178" data-name="Path 97178" d="M12.85,5.939a.821.821,0,1,0-.821-.821.821.821,0,0,0,.821.821" transform="translate(-2.618 -0.935)" fill="#ca373c"/>
    <path id="Path_97179" data-name="Path 97179" d="M12.85,31.6a.821.821,0,1,0,.821.821.821.821,0,0,0-.821-.821" transform="translate(-2.618 -6.876)" fill="#ca373c"/>
  </g>
</svg>
