<svg xmlns="http://www.w3.org/2000/svg" width="81.937" height="81.937" viewBox="0 0 81.937 81.937">
  <g id="Group_29207" data-name="Group 29207" transform="translate(-1149.556 -1861.089)">
    <circle id="Ellipse_64" data-name="Ellipse 64" cx="40.768" cy="40.768" r="40.768" transform="translate(1149.756 1861.289)" fill="none" stroke="#818386" stroke-width="0.4"/>
    <path id="Path_99269" data-name="Path 99269" d="M13.088,268.641h6.385a.546.546,0,0,0,.549-.546v-1.541a.546.546,0,0,0-.549-.546H13.088a.548.548,0,0,0-.549.546v1.554a.549.549,0,0,0,.549.533m.546-1.554H18.9v.459H13.634Z" transform="translate(1155.725 1636.387)" fill="#bb0e1f"/>
    <path id="Path_99270" data-name="Path 99270" d="M19.475,270.454H13.088a.548.548,0,0,0-.549.546v1.549a.548.548,0,0,0,.549.546h6.388a.546.546,0,0,0,.546-.546v-1.541a.546.546,0,0,0-.541-.554h-.005M18.927,272H13.634v-.452H18.9Z" transform="translate(1155.725 1643.615)" fill="#bb0e1f"/>
    <path id="Path_99271" data-name="Path 99271" d="M27.2,268.641h6.359a.548.548,0,0,0,.549-.546v-1.541a.548.548,0,0,0-.549-.546H27.2a.546.546,0,0,0-.546.546v1.554a.546.546,0,0,0,.546.533m.549-1.546h5.293v.459H27.765Z" transform="translate(1178.658 1636.387)" fill="#bb0e1f"/>
    <path id="Path_99272" data-name="Path 99272" d="M33.583,270.453H27.2a.548.548,0,0,0-.546.549v1.546a.548.548,0,0,0,.546.549h6.359a.548.548,0,0,0,.546-.549v-1.541a.545.545,0,0,0-.517-.554M33.034,272H27.765v-.452h5.269Z" transform="translate(1178.658 1643.613)" fill="#bb0e1f"/>
    <path id="Path_99273" data-name="Path 99273" d="M65.675,272.563h-7.1V257.235a.546.546,0,0,0-.546-.546H49.252a.546.546,0,0,0-.546.546v15.327H44.435v-2.539a5.784,5.784,0,0,0-.074-.877h1.024a1.569,1.569,0,0,0,1.562-1.562v-9.312a1.569,1.569,0,0,0-1.562-1.562H31.215a1.569,1.569,0,0,0-1.562,1.562v9.284a1.569,1.569,0,0,0,1.562,1.562h1.024a5.783,5.783,0,0,0-.074.877v2.568H10.931a.548.548,0,0,0-.546.549v25.745a.546.546,0,0,0,.546.546h17.68a.546.546,0,0,0,.546-.546v-20.55h3.017v.659a3.732,3.732,0,0,0,3.728,3.728v1.2H33.245a2.478,2.478,0,1,0,0,4.957H36.96v4.49H32.274a1.515,1.515,0,0,0-1.51,1.5v3.074a1.46,1.46,0,1,0,2.92,0v-1.46h3.256v1.46a1.46,1.46,0,1,0,2.92,0v-1.46h2.993v1.46a1.46,1.46,0,1,0,2.92,0v-2.8a.477.477,0,0,0,0-.087.569.569,0,0,0,0-.095,1.583,1.583,0,0,0-1.583-1.583H39.809v-4.49h3.458a2.478,2.478,0,1,0,0-4.957H40.683v-1.205a3.736,3.736,0,0,0,3.731-3.728v-.659h3.014v20.55a.546.546,0,0,0,.549.546h17.7a.546.546,0,0,0,.549-.546V273.111a.548.548,0,0,0-.549-.549M49.806,257.8H57.47v14.766H49.806ZM32.5,268.015H31.215a.475.475,0,0,1-.467-.467v-9.276a.475.475,0,0,1,.467-.467H45.39a.472.472,0,0,1,.467.467v9.284a.472.472,0,0,1-.467.467H44.1a6.128,6.128,0,0,0-.845-1.649l-.089-.118a5.918,5.918,0,0,0-.562-.641l-.042-.037a6.422,6.422,0,0,0-.614-.52l-.116-.087a6.258,6.258,0,0,0-.73-.438l-.118-.058a6.143,6.143,0,0,0-.73-.307h-.079a6.308,6.308,0,0,0-.827-.2h-.181a5.562,5.562,0,0,0-1.746,0h-.181a6.371,6.371,0,0,0-.824.2h-.081a6.143,6.143,0,0,0-.73.307l-.116.058a5.85,5.85,0,0,0-.73.438l-.118.087a6.084,6.084,0,0,0-.612.52l-.045.037a6.217,6.217,0,0,0-.562.641l-.087.118A6.05,6.05,0,0,0,32.486,268ZM11.48,288.856H28.086v9.452H11.48Zm16.606-1.095H11.48V278.31H28.086Zm.546-10.549H11.48v-3.539H32.174v3.555ZM38.85,297.927a.379.379,0,0,1-.73,0v-1.46h.73Zm5.936-3.051a.507.507,0,0,0,0,.089.477.477,0,0,0,0,.087.771.771,0,0,0,0,.11v2.765a.381.381,0,0,1-.47.263.375.375,0,0,1-.26-.263v-1.969a.55.55,0,0,0-.549-.549H33.2a.55.55,0,0,0-.549.549v1.969a.379.379,0,0,1-.73,0V294.84a.437.437,0,0,1,.457-.417l.032,0H44.259a.491.491,0,0,1,.491.459Zm-5.936-1.539h-.73v-4.482h.73Zm5.941-6.965a1.387,1.387,0,0,1-1.386,1.389H33.245a1.384,1.384,0,1,1,0-2.767H43.361a1.389,1.389,0,0,1,1.389,1.378Zm-7.771-2.481v-7.979a1.283,1.283,0,0,1,2.56-.192,1.167,1.167,0,0,1,0,.192v7.979Zm6.32-4.933a2.633,2.633,0,0,1-2.633,2.633V275.9a2.38,2.38,0,1,0-4.752-.263,2.19,2.19,0,0,0,0,.263v5.692a2.634,2.634,0,0,1-2.636-2.633v-8.934a5.19,5.19,0,0,1,.452-2.074,5.053,5.053,0,0,1,.869-1.313l.066-.073a5.019,5.019,0,0,1,.541-.488l.087-.066a5.043,5.043,0,0,1,1.315-.73l.1-.037a5.218,5.218,0,0,1,.73-.184h.131a4.646,4.646,0,0,1,1.525,0h.131a5.409,5.409,0,0,1,.73.184l.1.037a5.028,5.028,0,0,1,1.313.73l.089.066a4.992,4.992,0,0,1,.538.488l.066.073a4.987,4.987,0,0,1,.869,1.313,5.144,5.144,0,0,1,.365,2.074v8.934Zm1.095-5.285H65.129v3.555H44.435Zm20.694,4.65v9.439H48.523v-9.454ZM48.523,288.856H65.129v9.452H48.523Z" transform="translate(1152.223 1621.24)" fill="#bb0e1f"/>
    <path id="Path_99274" data-name="Path 99274" d="M28,260.876a1.854,1.854,0,1,0,1.854,1.854A1.853,1.853,0,0,0,28,260.876m0,2.62a.726.726,0,1,0,0-.008Z" transform="translate(1177.85 1628.046)" fill="#bb0e1f"/>
  </g>
</svg>
