<svg xmlns="http://www.w3.org/2000/svg" width="81.937" height="81.937" viewBox="0 0 81.937 81.937">
  <g id="Group_29203" data-name="Group 29203" transform="translate(-1149.556 -1725.4)">
    <circle id="Ellipse_63" data-name="Ellipse 63" cx="40.768" cy="40.768" r="40.768" transform="translate(1149.756 1725.6)" fill="none" stroke="#818386" stroke-width="0.4"/>
    <path id="Path_99205" data-name="Path 99205" d="M17.562,226.4a3.954,3.954,0,0,1,1.709-2.247,9.245,9.245,0,0,1,2.9-1.407,11.272,11.272,0,0,0-.974-3.389,7.933,7.933,0,0,0-2.67-3.048,2.134,2.134,0,0,0-.614-.32,3.964,3.964,0,0,0-.746-.118,13.24,13.24,0,0,0-3.468.168,8.923,8.923,0,0,0-2.843.943A2.669,2.669,0,0,0,9.4,219.5a3.029,3.029,0,0,0,.307,1.142,2.868,2.868,0,0,0,.7.911,1.952,1.952,0,0,0,2.116.357,7.005,7.005,0,0,0-1.68-1.323l-.021-.013-.029-.021a1.529,1.529,0,0,1-.677-1.21,1.392,1.392,0,0,1,.2-.719,1.636,1.636,0,0,1,.48-.522,1.477,1.477,0,0,1,1.334-.21c3.305,1.205,4.773,4.721,5.411,8.572Zm7.375-11.555a.171.171,0,0,1-.341,0,.2.2,0,0,0-.06-.147.222.222,0,0,0-.3,0,.213.213,0,0,0-.06.147.586.586,0,0,0,.173.415.6.6,0,0,0,.423.171.615.615,0,0,0,.425-.171.6.6,0,0,0,.173-.415.954.954,0,0,0-.286-.68,1,1,0,0,0-1.391,0,.954.954,0,0,0-.286.68,1.323,1.323,0,0,0,.4.948,1.382,1.382,0,0,0,1.932,0,1.323,1.323,0,0,0,.4-.948.17.17,0,0,1,.171-.171.173.173,0,0,1,.173.171,1.673,1.673,0,0,1-.5,1.189,1.728,1.728,0,0,1-2.413,0,1.662,1.662,0,0,1-.5-1.189,1.294,1.294,0,0,1,.389-.922,1.331,1.331,0,0,1,1.869,0,1.283,1.283,0,0,1,.389.922.923.923,0,0,1-.278.656.945.945,0,0,1-1.323,0,.929.929,0,0,1-.273-.656.553.553,0,0,1,1.105,0m-7.249.171c.622-2.192,3.831-3.778,8.281-4.773a66.685,66.685,0,0,1,13.949-1.336,66.7,66.7,0,0,1,13.949,1.336c4.581,1.024,7.85,2.675,8.328,4.973.165-.029.352-.05.57-.071a14.1,14.1,0,0,1,3.718.176,9.869,9.869,0,0,1,3.143,1.053,3.542,3.542,0,0,1,1.906,3.358,3.946,3.946,0,0,1-.4,1.491,3.852,3.852,0,0,1-.914,1.195,2.834,2.834,0,0,1-3.114.488.469.469,0,0,1-.165-.126c-2.045,2.859-1.835,7.094-1.638,10.985.053,1.061.105,2.1.11,3.1l0,.454H65.2l-.785,2.636H62.9l-.8-2.581H17.87l-.738,2.4H15.614l-.785-2.639h-.218l0-.452c.005-1,.06-2.04.11-3.1.2-3.894.407-8.126-1.636-10.988a.5.5,0,0,1-.168.126,2.833,2.833,0,0,1-3.111-.486,3.83,3.83,0,0,1-.916-1.2,3.92,3.92,0,0,1-.4-1.491A3.536,3.536,0,0,1,10.4,216.2a9.963,9.963,0,0,1,3.14-1.053,14.348,14.348,0,0,1,3.72-.176C17.418,214.986,17.56,215,17.689,215.02Zm43.643.5c-.278-1.951-3.324-3.424-7.658-4.4a65.775,65.775,0,0,0-13.755-1.31,65.749,65.749,0,0,0-13.752,1.31c-4.148.929-7.115,2.316-7.609,4.143a3.942,3.942,0,0,1,.491.3,8.837,8.837,0,0,1,2.967,3.389,12.1,12.1,0,0,1,1.042,3.547,38.814,38.814,0,0,1,8.3-.809,20.367,20.367,0,0,1,7.157,1.063,2.256,2.256,0,0,1,1.192,1.888,9.933,9.933,0,0,1-.144,3.274v2.484c0,.155,0,.178,0,.2,0,.1,0,.147,0,.173h0c0,.11,0,.215-.011.31h.869a2.87,2.87,0,0,1-.013-.31h0l.005-.173v-2.8a9.857,9.857,0,0,1-.121-3.164,2.27,2.27,0,0,1,1.192-1.89,20.434,20.434,0,0,1,7.157-1.061,38.458,38.458,0,0,1,8.354.822,11.832,11.832,0,0,1,1.013-3.382,8.809,8.809,0,0,1,2.967-3.387c.126-.087.242-.16.352-.223M17.98,231.091H18l-.018-.016Zm-2.452,5.151,1.586,0,0-.769c.042-5.338.116-14.758-5.3-16.729a.571.571,0,0,0-.5.108.717.717,0,0,0-.223.231.488.488,0,0,0-.076.257.655.655,0,0,0,.3.478c4.86,2.8,4.571,8.6,4.308,13.815C15.591,234.533,15.544,235.412,15.528,236.242Zm1.465.906h-1.21l.515,1.728h.165ZM57.879,222.76a9.3,9.3,0,0,1,2.859,1.394,3.93,3.93,0,0,1,1.709,2.266l-.018,0,.063.2c.643-3.841,2.108-7.346,5.408-8.549a1.488,1.488,0,0,1,1.334.213,1.727,1.727,0,0,1,.483.52,1.4,1.4,0,0,1,.194.722,1.515,1.515,0,0,1-.677,1.21l-.026.021-.024.013a7.116,7.116,0,0,0-1.68,1.321,1.951,1.951,0,0,0,2.119-.354,2.9,2.9,0,0,0,.7-.911,3.029,3.029,0,0,0,.307-1.145,2.663,2.663,0,0,0-1.457-2.518,8.968,8.968,0,0,0-2.843-.943,13.154,13.154,0,0,0-3.471-.168,3.964,3.964,0,0,0-.746.118,2.134,2.134,0,0,0-.614.32,7.946,7.946,0,0,0-2.67,3.046,11.185,11.185,0,0,0-.95,3.221Zm4.18,8.262-.071.068h.068Zm2.192,6.3-1.216,0,.53,1.725h.171Zm-1.334-.9H64.5c-.018-.83-.063-1.712-.108-2.61-.257-5.217-.549-11.011,4.314-13.813a.645.645,0,0,0,.3-.48.508.508,0,0,0-.074-.255.727.727,0,0,0-.223-.234.574.574,0,0,0-.5-.1c-5.411,1.972-5.338,11.389-5.3,16.729ZM61.983,232H18.051v4.471H61.983Zm-1.5-6.895q-.138-.11-.284-.221a8.167,8.167,0,0,0-2.927-1.339l-.029-.008-.032-.01a33.268,33.268,0,0,0-8.562-.927,19.553,19.553,0,0,0-6.818,1c-.354.144-.546.617-.641,1.2a6.454,6.454,0,0,0-.071,1.021,6.385,6.385,0,0,1,2.171-.853,29.044,29.044,0,0,1,4.776-.593A51.3,51.3,0,0,1,60.484,225.1Zm-19.158,2.631.011.047-.011,0v2.623c0,.005,0,.11,0,.218v.158h0c0,.066.005.1.063.1H59.956a2.135,2.135,0,0,0,1.36-.412,1.236,1.236,0,0,0,.438-1c0-.055.005-.231.011-.428.021-.919.058-2.447-.449-2.712-1.641-.866-8.01-1.347-13.2-1.063a28.021,28.021,0,0,0-4.616.572c-1.142.265-1.924.6-2.135.99a.323.323,0,0,0-.039.168l0,.024ZM19.81,224.89c-.095.068-.184.137-.268.207a51.412,51.412,0,0,1,12.376-.727,28.75,28.75,0,0,1,4.776.591,6.316,6.316,0,0,1,2.192.869,6.286,6.286,0,0,0-.071-1.032c-.095-.578-.286-1.053-.641-1.2a19.5,19.5,0,0,0-6.818-.992,33.153,33.153,0,0,0-8.559.924l-.034.013-.029.005A8.206,8.206,0,0,0,19.81,224.89Zm18.848,5.519v-3.382l0-.024a.32.32,0,0,0-.039-.165c-.207-.4-.992-.727-2.135-.992a28.276,28.276,0,0,0-4.616-.572c-5.191-.284-11.563.2-13.2,1.063-.507.268-.47,1.8-.449,2.712.005.2.011.373.011.428a1.247,1.247,0,0,0,.441,1,2.132,2.132,0,0,0,1.357.41H38.6c.058,0,.066-.037.066-.1h0v-.158Z" transform="translate(1149.139 1543.578)" fill="#bb0e1f"/>
  </g>
</svg>
