<svg id="Group_28600" data-name="Group 28600" xmlns="http://www.w3.org/2000/svg" xmlns:xlink="http://www.w3.org/1999/xlink" width="29.778" height="28.046" viewBox="0 0 29.778 28.046">
  <defs>
    <clipPath id="clip-path">
      <rect id="Rectangle_9678" data-name="Rectangle 9678" width="29.778" height="28.046" fill="#ca373c"/>
    </clipPath>
  </defs>
  <g id="Group_28601" data-name="Group 28601" clip-path="url(#clip-path)">
    <path id="Path_97363" data-name="Path 97363" d="M0,13.323c.047-.2.087-.4.141-.59a4.074,4.074,0,0,1,3.842-3c.105,0,.211,0,.334,0A10.526,10.526,0,0,1,8.738,1.967,10.2,10.2,0,0,1,14.913,0a10.3,10.3,0,0,1,7.153,2.808,10.451,10.451,0,0,1,3.377,6.883c.4.049.78.069,1.147.146a4.023,4.023,0,0,1,3.173,3.841A27.91,27.91,0,0,1,29.7,16.9,3.959,3.959,0,0,1,26.017,20.3c-.474.026-.949.016-1.424.014a.9.9,0,0,1-.983-1q0-4.331,0-8.662a8.322,8.322,0,0,0-1.932-5.533A8.331,8.331,0,0,0,12.671,2.17a8.363,8.363,0,0,0-6.388,7,8.391,8.391,0,0,0-.118,1.561c-.011,2.829,0,5.658-.005,8.487,0,.712-.222,1.019-.917,1.1-2.187.254-4.061-.5-4.921-2.49A9.155,9.155,0,0,1,0,16.754v-3.43" transform="translate(0 0)" fill="#ca373c"/>
    <path id="Path_97364" data-name="Path 97364" d="M155.942,316.675c-.387,0-.775.007-1.162,0a1.858,1.858,0,0,1-.049-3.715c.8-.025,1.608-.026,2.411,0a1.857,1.857,0,0,1-.038,3.713c-.387.009-.775,0-1.162,0" transform="translate(-141.047 -288.632)" fill="#ca373c"/>
    <path id="Path_97365" data-name="Path 97365" d="M57.738,279.96v1a6.282,6.282,0,0,1-6.9-5.25h1a5.414,5.414,0,0,0,5.9,4.254" transform="translate(-46.888 -254.29)" fill="#ca373c"/>
  </g>
</svg>
