<svg xmlns="http://www.w3.org/2000/svg" width="385.596" height="55.799" viewBox="0 0 385.596 55.799">
  <g id="Group_28289" data-name="Group 28289" transform="translate(4072.596 1810)">
    <g id="Group_28288" data-name="Group 28288">
      <g id="Rectangle_9511" data-name="Rectangle 9511" transform="translate(-3964.67 -1801.07)" fill="#eba953" stroke="#fff" stroke-width="0.5">
        <rect width="277.67" height="3.686" stroke="none"/>
        <rect x="0.25" y="0.25" width="277.17" height="3.186" fill="none"/>
      </g>
      <g id="Rectangle_9518" data-name="Rectangle 9518" transform="translate(-4010 -1798.284)" fill="#eba953" stroke="#fff" stroke-width="0.5">
        <rect width="323" height="3.77" stroke="none"/>
        <rect x="0.25" y="0.25" width="322.5" height="3.27" fill="none"/>
      </g>
      <g id="Rectangle_9514" data-name="Rectangle 9514" transform="translate(-3902 -1804.196)" fill="#eba953" stroke="#fff" stroke-width="0.5">
        <rect width="215" height="3.77" stroke="none"/>
        <rect x="0.25" y="0.25" width="214.5" height="3.27" fill="none"/>
      </g>
      <g id="Rectangle_9515" data-name="Rectangle 9515" transform="translate(-3835 -1806.709)" fill="#eba953" stroke="#fff" stroke-width="0.5">
        <rect width="148" height="3.77" stroke="none"/>
        <rect x="0.25" y="0.25" width="147.5" height="3.27" fill="none"/>
      </g>
      <g id="Rectangle_9512" data-name="Rectangle 9512" transform="translate(-4045 -1795.77)" fill="#eba953" stroke="#fff" stroke-width="0.5">
        <rect width="358" height="3.77" stroke="none"/>
        <rect x="0.25" y="0.25" width="357.5" height="3.27" fill="none"/>
      </g>
      <rect id="Rectangle_9513" data-name="Rectangle 9513" width="358" height="30" transform="translate(-4045 -1792)"/>
    </g>
    <g id="Group_28286" data-name="Group 28286" transform="translate(-10.5 698.985)">
      <path id="Path_97206" data-name="Path 97206" d="M-4234.2-2711.008l7.205-4.97,7.161,4.97" transform="translate(173.517 207.993)" fill="none" stroke="#0a2647" stroke-linecap="round" stroke-linejoin="round" stroke-width="2"/>
      <line id="Line_70" data-name="Line 70" y2="46.515" transform="translate(-4053.5 -2505)" fill="none" stroke="#0a2647" stroke-linecap="round" stroke-width="2"/>
      <path id="Path_97207" data-name="Path 97207" d="M-4234.2-2709.351l7.205-6.628,7.161,6.628" transform="translate(-8280.517 -5170.164) rotate(180)" fill="none" stroke="#0a2647" stroke-linecap="round" stroke-linejoin="round" stroke-width="2"/>
    </g>
  </g>
</svg>
