<svg id="Group_28615" data-name="Group 28615" xmlns="http://www.w3.org/2000/svg" xmlns:xlink="http://www.w3.org/1999/xlink" width="27.852" height="27.854" viewBox="0 0 27.852 27.854">
  <defs>
    <clipPath id="clip-path">
      <rect id="Rectangle_9686" data-name="Rectangle 9686" width="27.852" height="27.854" fill="#ca373c"/>
    </clipPath>
  </defs>
  <g id="Group_28615-2" data-name="Group 28615" clip-path="url(#clip-path)">
    <path id="Path_97375" data-name="Path 97375" d="M3.538,0c.183.041.367.081.549.123A3.312,3.312,0,0,1,6.633,3,3.358,3.358,0,0,1,3.762,6.669a3.34,3.34,0,0,1-3.695-2.9A1.349,1.349,0,0,0,0,3.538V3.157a1.358,1.358,0,0,0,.067-.23A3.307,3.307,0,0,1,2.582.126C2.773.083,2.965.042,3.157,0Z" fill="#ca373c"/>
    <path id="Path_97376" data-name="Path 97376" d="M141.392,124.212a1.382,1.382,0,0,0,.128-.156,5.74,5.74,0,0,1,3.969-2.7,8.391,8.391,0,0,1,4.315.3,5,5,0,0,1,3.1,2.863,8.735,8.735,0,0,1,.755,3.315c.072,2.791.087,5.584.115,8.377.013,1.252,0,2.5.007,3.756,0,.22-.067.276-.28.275q-2.585-.012-5.171,0c-.235,0-.285-.08-.285-.3.006-3.175.02-6.35-.009-9.525a9.192,9.192,0,0,0-.275-2.172,2.473,2.473,0,0,0-2.65-1.993,5.279,5.279,0,0,0-1.262.139,2.815,2.815,0,0,0-2.087,2.34,9.452,9.452,0,0,0-.223,1.935c-.023,3.075-.014,6.151,0,9.226,0,.275-.068.351-.346.348-1.7-.013-3.393-.011-5.089,0-.225,0-.3-.064-.3-.291q.008-8.981,0-17.962c0-.221.066-.3.294-.3q2.449.011,4.9,0c.235,0,.32.067.314.31-.014.635,0,1.27,0,1.9v.288l.086.027" transform="translate(-125.928 -112.385)" fill="#ca373c"/>
    <path id="Path_97377" data-name="Path 97377" d="M6.932,137.155q0-4.448,0-8.9c0-.356,0-.357.361-.358,1.66,0,3.319.005,4.979-.006.27,0,.355.07.354.35q-.012,8.938,0,17.876c0,.271-.087.328-.341.327-1.66-.011-3.319-.005-4.979-.005-.374,0-.375,0-.375-.39q0-4.448,0-8.9" transform="translate(-6.428 -118.594)" fill="#ca373c"/>
  </g>
</svg>
