<svg id="Component_55_2" data-name="Component 55 – 2" xmlns="http://www.w3.org/2000/svg" xmlns:xlink="http://www.w3.org/1999/xlink" width="86.829" height="28" viewBox="0 0 86.829 28">
  <defs>
    <clipPath id="clip-path">
      <rect id="Rectangle_9693" data-name="Rectangle 9693" width="22.956" height="20.759" fill="#0a2647"/>
    </clipPath>
  </defs>
  <g id="Group_28652" data-name="Group 28652" transform="translate(0 4)" clip-path="url(#clip-path)">
    <path id="Path_97378" data-name="Path 97378" d="M204.934,162.13a.881.881,0,0,1-.925.544c-3.391-.011-6.783-.006-10.174-.006h-.264v-1.435h.242c3.4,0,6.8.005,10.2-.006a.88.88,0,0,1,.925.544Z" transform="translate(-181.978 -151.571)" fill="#0a2647"/>
    <path id="Path_97379" data-name="Path 97379" d="M312.483,26.019a.85.85,0,0,1-.915.553c-1.118-.02-2.237-.007-3.356-.007h-.241V25.131h.224c1.111,0,2.223.013,3.333-.006a.907.907,0,0,1,.954.536Z" transform="translate(-289.527 -23.619)" fill="#0a2647"/>
    <path id="Path_97380" data-name="Path 97380" d="M312.483,298.22a.907.907,0,0,1-.954.536c-1.1-.019-2.207-.006-3.311-.006h-.247v-1.435h.219c1.126,0,2.252.014,3.378-.007a.851.851,0,0,1,.915.553Z" transform="translate(-289.527 -279.501)" fill="#0a2647"/>
    <path id="Path_97381" data-name="Path 97381" d="M11.4,25.234v1.435h-.222q-5.141,0-10.282,0a1.2,1.2,0,0,1-.474-.088.674.674,0,0,1-.381-.7.7.7,0,0,1,.542-.613,1.51,1.51,0,0,1,.333-.029q5.118,0,10.237,0Z" transform="translate(-0.032 -23.722)" fill="#0a2647"/>
    <path id="Path_97382" data-name="Path 97382" d="M11.393,297.43v1.435h-.23q-5.141,0-10.282-.007a1.176,1.176,0,0,1-.565-.158.647.647,0,0,1-.257-.75.7.7,0,0,1,.632-.517c.067,0,.134,0,.2,0h10.5Z" transform="translate(-0.027 -279.616)" fill="#0a2647"/>
    <path id="Path_97383" data-name="Path 97383" d="M101.741,138.229a2.228,2.228,0,1,1-2.212-2.24,2.238,2.238,0,0,1,2.212,2.24" transform="translate(-91.457 -127.845)" fill="#0a2647"/>
    <path id="Path_97384" data-name="Path 97384" d="M211.645,2.221a2.229,2.229,0,1,1,2.2,2.243,2.232,2.232,0,0,1-2.2-2.243" transform="translate(-198.97 -0.001)" fill="#0a2647"/>
    <path id="Path_97385" data-name="Path 97385" d="M211.643,274.326a2.228,2.228,0,1,1,2.213,2.236,2.229,2.229,0,0,1-2.213-2.236" transform="translate(-198.967 -255.803)" fill="#0a2647"/>
    <path id="Path_97386" data-name="Path 97386" d="M4.515,162.774c-.036,0-.094.009-.152.009-1.2,0-2.406,0-3.608,0a.715.715,0,0,1-.7-.983.646.646,0,0,1,.6-.442c1.291-.012,2.582-.005,3.862-.005Z" transform="translate(0.001 -151.687)" fill="#0a2647"/>
  </g>
  <text id="filter" transform="translate(32.829 22)" fill="#0a2647" font-size="23" font-family="Inter-Light, Inter" font-weight="300"><tspan x="0" y="0">Filter</tspan></text>
</svg>
