<svg xmlns="http://www.w3.org/2000/svg" width="1742.665" height="460" viewBox="0 0 1742.665 460">
  <g id="Rectangle_9637" data-name="Rectangle 9637" transform="translate(1742.665 460) rotate(180)" fill="none" stroke="#0a2647" stroke-width="5">
    <path d="M0,0H1512.665a230,230,0,0,1,230,230v0a230,230,0,0,1-230,230H0a0,0,0,0,1,0,0V0A0,0,0,0,1,0,0Z" stroke="none"/>
    <path d="M4.8,2.5H1512.665a227.5,227.5,0,0,1,227.5,227.5v0a227.5,227.5,0,0,1-227.5,227.5H4.8a2.3,2.3,0,0,1-2.3-2.3V4.8A2.3,2.3,0,0,1,4.8,2.5Z" fill="none"/>
  </g>
</svg>
