<svg id="Group_28444" data-name="Group 28444" xmlns="http://www.w3.org/2000/svg" xmlns:xlink="http://www.w3.org/1999/xlink" width="132.653" height="115.847" viewBox="0 0 132.653 115.847">
  <defs>
    <clipPath id="clip-path">
      <rect id="Rectangle_9625" data-name="Rectangle 9625" width="132.653" height="115.847" fill="#fff"/>
    </clipPath>
  </defs>
  <g id="Group_28443" data-name="Group 28443" clip-path="url(#clip-path)">
    <path id="Path_97304" data-name="Path 97304" d="M0,112.859a3.2,3.2,0,0,1,3.056-1.486c3.84.052,7.682.018,11.523.018h1.56c0-.72,0-1.308,0-1.9Q16.1,63.984,16.06,18.473A18.2,18.2,0,0,1,29.983.6c7.889-1.976,16.2,1.053,20.447,7.45.974,1.467.737,2.851-.6,3.522-1.13.565-2.147.228-3.077-1.08a13.379,13.379,0,0,0-8.883-5.754C26.849,2.876,20.391,10.9,20.425,18.916c.131,30.3.108,60.595.142,90.892,0,.468,0,.936,0,1.591.8,0,1.478-.033,2.149.007a2.257,2.257,0,0,1,2.406,2.191,2.188,2.188,0,0,1-2.479,2.212c-6.69.023-13.379-.006-20.069.025A3.166,3.166,0,0,1,0,114.413Z" transform="translate(0 0)" fill="#fff"/>
    <path id="Path_97305" data-name="Path 97305" d="M151.8,166.426q0,8.48,0,16.96c0,2.3-.682,2.977-3.024,2.979q-7.9.008-15.795,0c-2.346,0-2.972-.643-2.984-3-.036-7.077-3.706-12.532-9.95-14.452a23.758,23.758,0,0,0-5.472-.734c-2.053-.128-2.859-.787-2.847-2.819.017-2.932-.1-5.883.189-8.791a11.438,11.438,0,0,1,11.111-10.172c8.76-.1,17.521-.047,26.281-.039,1.7,0,2.483.831,2.487,2.593q.018,8.739,0,17.478" transform="translate(-73.063 -95.697)" fill="#fff"/>
    <path id="Path_97306" data-name="Path 97306" d="M240.305,166.285q0-8.475,0-16.951c0-2.263.686-2.971,2.9-2.973,8.109-.005,16.218-.021,24.326,0,7.2.021,12.188,4.969,12.3,12.167.035,2.156.01,4.313.005,6.469-.005,2.5-.644,3.138-3.132,3.163a14.276,14.276,0,0,0-14.229,11.4,26.042,26.042,0,0,0-.351,4.242c-.083,1.772-.772,2.552-2.523,2.56q-8.346.034-16.692,0c-1.855-.007-2.6-.817-2.6-2.748q-.011-8.669,0-17.339" transform="translate(-157.152 -95.71)" fill="#fff"/>
    <path id="Path_97307" data-name="Path 97307" d="M188.392,295.554q-10.354,0-20.709,0c-2.61,0-3.177-.585-3.173-3.206q.012-7.313.014-14.626c0-2.165.7-2.883,2.861-2.884q21.162-.011,42.325,0c2.149,0,2.833.722,2.838,2.908q.016,7.507.016,15.014c0,2.065-.715,2.786-2.814,2.789q-10.678.017-21.356,0" transform="translate(-107.585 -179.732)" fill="#fff"/>
    <path id="Path_97308" data-name="Path 97308" d="M316.13,245.124q0-6.086,0-12.172c.009-6.709,4.115-10.819,10.8-10.83,2.287,0,4.582-.118,6.716.962a9.514,9.514,0,0,1,5.671,8.747c.113,6.516.083,13.035.015,19.552a9.681,9.681,0,0,1-9.169,9.613c-3.877.178-7.767.094-11.651.061-1.637-.013-2.342-.9-2.382-2.724,0-.043,0-.086,0-.129V245.124" transform="translate(-206.739 -145.258)" fill="#fff"/>
    <path id="Path_97309" data-name="Path 97309" d="M107.838,245.129q0,6.475,0,12.95c0,2.239-.72,2.974-2.924,2.982-3.324.013-6.648.033-9.971,0-6.214-.067-10.329-4.252-10.338-10.486q-.013-9,0-18c.011-6.251,4.231-10.449,10.506-10.458a29.109,29.109,0,0,1,4.007.1,9.864,9.864,0,0,1,8.711,10.1c.05,4.273.01,8.547.011,12.82" transform="translate(-55.324 -145.243)" fill="#fff"/>
    <path id="Path_97310" data-name="Path 97310" d="M119.259,68.038q-6.208,0-12.417,0c-2.328,0-2.983-.686-3.018-3-.051-3.372-.02-6.7,1.542-9.847a15.459,15.459,0,0,1,29.363,6.525q.026,1.875,0,3.751c-.025,1.764-.82,2.557-2.667,2.566-4.268.023-8.537.008-12.805.008" transform="translate(-67.89 -30.379)" fill="#fff"/>
  </g>
</svg>
