<svg id="Group_28448" data-name="Group 28448" xmlns="http://www.w3.org/2000/svg" xmlns:xlink="http://www.w3.org/1999/xlink" width="110.208" height="110.188" viewBox="0 0 110.208 110.188">
  <defs>
    <clipPath id="clip-path">
      <rect id="Rectangle_9627" data-name="Rectangle 9627" width="110.207" height="110.188" fill="none"/>
    </clipPath>
  </defs>
  <g id="Group_28447" data-name="Group 28447" clip-path="url(#clip-path)">
    <path id="Path_97313" data-name="Path 97313" d="M2.4,339.309A3.872,3.872,0,0,1,0,335.215c.1-4.37.032-8.745.033-13.117a1.4,1.4,0,0,1,1-.334c4.011-.014,8.022-.051,12.032.019a1.644,1.644,0,0,1,.419.079c.437.137.535.527.678.9a2.951,2.951,0,0,0,5.731.044c.141-.365.219-.768.655-.924a6.173,6.173,0,0,1,1.81-.128q5.03-.007,10.06,0a2.462,2.462,0,0,1,1.646.318,2.313,2.313,0,0,1,.315,1.544q.013,7.082,0,14.165a2.117,2.117,0,0,1-.347,1.531Z" transform="translate(0 -229.121)" fill="#e1def3"/>
    <path id="Path_97314" data-name="Path 97314" d="M226.89,339.315H201.068a1.961,1.961,0,0,1-.346-1.422q-.011-7.179,0-14.358a2.247,2.247,0,0,1,.3-1.441,2.161,2.161,0,0,1,1.536-.338q11.443-.013,22.886,0a3.378,3.378,0,0,1,1.273.151.765.765,0,0,1,.32.28,2.934,2.934,0,0,1,.2,1.363q.01,7.12,0,14.239a2.114,2.114,0,0,1-.344,1.528" transform="translate(-142.936 -229.127)" fill="#5e54ab"/>
    <path id="Path_97315" data-name="Path 97315" d="M291.639,339.308q.012-8.6.024-17.191a1.692,1.692,0,0,1,1.4-.369q11.7-.017,23.4,0a1.961,1.961,0,0,1,1.424.347v12.051a5.918,5.918,0,0,1-5.164,5.165Z" transform="translate(-207.685 -229.12)" fill="#38336b"/>
    <path id="Path_97316" data-name="Path 97316" d="M317.023,281.459l-26.229.024-.047-.047a1.656,1.656,0,0,1-.319-1.217q-.017-7.153,0-14.307a1.54,1.54,0,0,1,.349-1.2c6.705-.008,13.411-.051,20.116-.008a6.32,6.32,0,0,1,5.728,4.2c.119.315.042.727.4.943Z" transform="translate(-206.815 -188.487)" fill="#5e54ab"/>
    <path id="Path_97317" data-name="Path 97317" d="M142.325,322.125q-.012,8.6-.023,17.192H118.2q0-8.61-.007-17.22l.159-.142a3.37,3.37,0,0,1,1.585-.2q10.329-.008,20.658,0a3.144,3.144,0,0,1,1.58.214l.149.154" transform="translate(-84.169 -229.129)" fill="#7873d4"/>
    <path id="Path_97318" data-name="Path 97318" d="M195.453,129.888c5.522-3.19,11.036-6.394,16.568-9.567,3.754-2.153,7.359-1.159,9.516,2.59q2.439,4.237,4.857,8.486c-.451.81-1.315,1.081-2.042,1.495-6.371,3.632-12.68,7.37-19.065,10.977-1.222.69-1.2.691-.474,1.946,2.416,4.181,4.851,8.351,7.233,12.552a1.676,1.676,0,0,1,.383.98l-2.71,1.692a1.377,1.377,0,0,1-1.185.374c-7.048,0-14.1.053-21.142-.022a28.011,28.011,0,0,1-3.7-.079c-1.255-.9-1.717-2.327-2.307-3.649-.226-.505.3-.736.669-.953,3.146-1.864,6.334-3.658,9.495-5.5,3.564-2.074,7.144-4.12,10.71-6.189,1.016-.589,1.04-.673.473-1.648q-3.38-5.811-6.714-11.648c-.317-.554-.9-1.069-.565-1.839" transform="translate(-129.131 -84.886)" fill="#4792fe"/>
    <path id="Path_97319" data-name="Path 97319" d="M34.112,280.564l-13.74,0-.124-.091a7.061,7.061,0,0,1-.461-1.075,2.761,2.761,0,0,0-2.782-1.766,2.832,2.832,0,0,0-2.669,1.952,4.032,4.032,0,0,1-.347.89l-.125.089-13.742.013L.129,263.76a1.69,1.69,0,0,1,1.208-.314c1.954,0,3.908-.029,5.862.009,1.807-.01,3.615-.037,5.422,0,4.649-.027,9.3-.04,13.948,0,2.128-.041,4.256-.016,6.385-.011a1.873,1.873,0,0,1,1.219.291,2.443,2.443,0,0,1,.292,1.553q.012,6.877,0,13.754a2.251,2.251,0,0,1-.33,1.541Z" transform="translate(-0.087 -187.596)" fill="#f3f3f5"/>
    <path id="Path_97320" data-name="Path 97320" d="M174.282,156.328a44.578,44.578,0,0,0,3.228,5.91q2.219,3.921,4.5,7.805c.392.668.4,1-.389,1.452-6.96,3.961-13.881,7.989-20.825,11.979-.464.266-.5.5-.257.925.582,1.023,1.136,2.061,1.7,3.093a1.04,1.04,0,0,1-.867.335c-2.312.008-4.626.115-6.934-.057-.895-.389-.249-.725.088-.934,1.035-.641,2.089-1.254,3.149-1.855.312-.177.626-.35.933-.535,1.181-.711,1.164-.7.45-1.941-2.378-4.132-4.77-8.255-7.138-12.392a2.32,2.32,0,0,1-.32-.678c.062-.478.49-.578.817-.771,6.166-3.633,12.395-7.16,18.577-10.767a1.2,1.2,0,0,1,.7-.247l2.591-1.323" transform="translate(-107.96 -111.326)" fill="#8ab8fe"/>
    <path id="Path_97321" data-name="Path 97321" d="M57.541.046c3.8-.011,7.6-.079,11.4-.013a6.294,6.294,0,0,1,5.789,5.792c.056,6.813,0,13.627-.01,20.441a1.689,1.689,0,0,1-1.308.338q-7.331.016-14.662,0a2.678,2.678,0,0,1-1.053-.154.734.734,0,0,1-.312-.287,3.351,3.351,0,0,1-.191-1.479q-.007-11.5,0-23A2.159,2.159,0,0,1,57.541.046" transform="translate(-40.726 -0.004)" fill="#fe6326"/>
    <path id="Path_97322" data-name="Path 97322" d="M268.367,189.518c-1.433-2.056-2.551-4.3-3.832-6.445-1.5-2.517-2.9-5.1-4.4-7.618-.346-.583-.406-.846.261-1.228,5.994-3.425,11.967-6.889,17.945-10.343q2-1.154,3.991-2.317c1.992,3.216,3.937,6.464,5.665,9.826a6.27,6.27,0,0,1-2.665,8.333c-5.635,3.3-11.308,6.532-16.965,9.792" transform="translate(-185.069 -115.057)" fill="#005ede"/>
    <path id="Path_97323" data-name="Path 97323" d="M187.364,43.86c3.246,1.725,6.459,3.519,9.538,5.517a6.163,6.163,0,0,1,2.025,8.09c-3.274,5.86-6.7,11.633-10.066,17.442-.349.166-.618-.043-.892-.2-4.644-2.645-9.254-5.349-13.889-8.009a.766.766,0,0,1-.159-.142.585.585,0,0,1-.1-.3c1.119-2.359,2.527-4.559,3.815-6.824,2.653-4.664,5.389-9.28,8.032-13.949.229-.405.474-.8.721-1.194.225-.359.5-.617.971-.428" transform="translate(-123.785 -31.189)" fill="#a2264a"/>
    <path id="Path_97324" data-name="Path 97324" d="M106.272,101.074c0,.069.006.138.009.207a16.88,16.88,0,0,1-2.061,3.962c-3.363,5.773-6.665,11.58-10.025,17.354a2.02,2.02,0,0,1-.823.957c-.434.118-.753-.15-1.088-.34C88.1,120.839,83.936,118.42,79.774,116c-.394-.229-.848-.411-.982-.925a3.481,3.481,0,0,1,.8-1.837c3.35-5.741,6.62-11.528,10-17.253.161-.273.26-.6.58-.746l1.676-2.587a42.031,42.031,0,0,1,4.673,2.6c2.934,1.642,5.832,3.349,8.738,5.039a2.841,2.841,0,0,1,1.015.776" transform="translate(-56.11 -65.982)" fill="#db455b"/>
    <path id="Path_97325" data-name="Path 97325" d="M.219,116.164l0-25.815a1.852,1.852,0,0,1,1.417-.338Q8.6,90,15.553,90.01a1.947,1.947,0,0,1,1.419.349l0,0a1.951,1.951,0,0,1,.351,1.422q.011,11.483,0,22.965a2.242,2.242,0,0,1-.3,1.443,2.171,2.171,0,0,1-1.535.338q-6.871.015-13.743,0a1.962,1.962,0,0,1-1.521-.361" transform="translate(-0.156 -64.095)" fill="#fed221"/>
    <path id="Path_97326" data-name="Path 97326" d="M201.058,264.592q10.482-.01,20.963-.021c.5,0,1-.021,1.5-.033l3.375.069q-.016,8.364-.032,16.728l-24.167.024c-.537,0-1.073.015-1.61.023l-.045-.046a1.95,1.95,0,0,1-.322-1.423q-.013-6.95,0-13.9a1.916,1.916,0,0,1,.333-1.419" transform="translate(-142.937 -188.385)" fill="#7873d4"/>
    <path id="Path_97327" data-name="Path 97327" d="M16.9,26.265.147,26.255C.139,19.526.074,12.8.148,6.069A6.255,6.255,0,0,1,6.161.042c3.576-.09,7.156-.006,10.735,0q0,13.111,0,26.222" transform="translate(-0.08 0)" fill="#fe8d00"/>
    <path id="Path_97328" data-name="Path 97328" d="M138.564,50.94a45.959,45.959,0,0,1-4.749-2.628c-3.015-1.675-5.97-3.46-8.951-5.2-.275-.16-.6-.26-.726-.594,3.318-5.767,6.579-11.568,9.977-17.288a6.239,6.239,0,0,1,8.4-2.179c3.193,1.755,6.316,3.638,9.469,5.466-.473.015-.644.364-.847.717q-5.994,10.4-12,20.795c-.178.309-.377.606-.566.909" transform="translate(-88.402 -15.849)" fill="#bc2e4a"/>
    <path id="Path_97329" data-name="Path 97329" d="M.167,180.877l16.754.017.136.145c.408,1.914.1,3.851.183,5.776.012.285-.02.573-.028.857a4.575,4.575,0,0,1-.929,2.133c-1.811,3.075-3.54,6.2-5.364,9.265-.858,1.423-1.662,2.877-2.494,4.315a3.588,3.588,0,0,1-1.185,1.592l-7.094-.005q.011-12.047.021-24.095" transform="translate(-0.104 -128.808)" fill="#fef06b"/>
    <path id="Path_97330" data-name="Path 97330" d="M129.3,144.8q3.115-5.366,6.231-10.732,3.336-5.726,6.687-11.443a43.991,43.991,0,0,1,5.432,2.979c3.17,1.792,6.316,3.626,9.473,5.443l-1.345,2.6a45.485,45.485,0,0,1-5.3,3.216c-4.9,2.87-9.811,5.706-14.719,8.555a5.868,5.868,0,0,1-2.962,1.661,32.823,32.823,0,0,1-3.495-1.994.25.25,0,0,1,0-.288" transform="translate(-92.044 -87.322)" fill="#bc2e4a"/>
    <path id="Path_97331" data-name="Path 97331" d="M58.408,117.051q0-12.912,0-25.824H75.586q.032,1.5.064,3c-1.34,2.8-3.032,5.408-4.561,8.1-2.217,3.907-4.459,7.8-6.69,11.7-.527,1.226-.859,2.582-2.175,3.288-1.279-.009-2.583.353-3.818-.266Z" transform="translate(-41.59 -64.965)" fill="#fe8d00"/>
    <path id="Path_97332" data-name="Path 97332" d="M54.366,322.069a3.254,3.254,0,0,1-6.508,0l.059.023a.844.844,0,0,1,.552-.288,41.847,41.847,0,0,1,5.286,0,.84.84,0,0,1,.552.289Z" transform="translate(-34.081 -229.106)" fill="#05303d"/>
    <path id="Path_97333" data-name="Path 97333" d="M142.287,263.8q-.006,8.372-.011,16.743l-24.061.037q-.013-8.4-.026-16.8a1.654,1.654,0,0,1,1.308-.347q4.722-.022,9.444,0a1.664,1.664,0,0,1,1.31.338l8.2-.017,3.841.041" transform="translate(-84.166 -187.597)" fill="#b6b3e6"/>
    <path id="Path_97334" data-name="Path 97334" d="M102.408,219.9l-12.062.009-7.521-.008c-.23-.164-.507-.268-.649-.541-.972-1.866-2.205-3.585-3.085-5.5.083-.465.507-.563.833-.757,3.342-1.989,6.723-3.91,10.093-5.851,2.006-1.1,3.96-2.3,5.946-3.434a2.179,2.179,0,0,1,1.08-.437l2.99-1.564a35.591,35.591,0,0,1,2.783,4.541c1.784,3.009,3.458,6.083,5.245,9.091.4.673.337.9-.33,1.282a55.467,55.467,0,0,0-5.323,3.174" transform="translate(-56.324 -143.715)" fill="#b0d4f0"/>
    <path id="Path_97335" data-name="Path 97335" d="M53.764,243.415a53.749,53.749,0,0,1,2.96,4.855c.244.388.468.787.7,1.181l-14-.008c-.016-.5.405-.647.727-.818,1.13-.6,2.186-1.336,3.32-1.93,1.77-.969,3.462-2.073,5.234-3.037.32-.174.624-.522,1.058-.242" transform="translate(-30.924 -173.268)" fill="#e1def3"/>
    <path id="Path_97336" data-name="Path 97336" d="M34.264,246.829l-4.112,2.6-5.365-.006,3.474-6.065a.853.853,0,0,1,.816.1c1.574.9,3.175,1.758,4.713,2.723.232.146.5.3.475.649" transform="translate(-17.652 -173.257)" fill="#bdbbdc"/>
    <path id="Path_97337" data-name="Path 97337" d="M54.453,315h-6.39a3.2,3.2,0,1,1,6.39,0" transform="translate(-34.227 -222.013)" fill="#0b617d"/>
    <path id="Path_97338" data-name="Path 97338" d="M42.856,194.94a62.542,62.542,0,0,0-6-3.467q2.984-5.171,5.964-10.343c.1-.182.176-.383.262-.575.616-1.926,1.875-3.508,2.832-5.251.352-.641.519-1.429,1.223-1.844.77-.928,1.094-2.137,1.919-3.03A24.977,24.977,0,0,0,53.2,173c3.3,1.976,6.652,3.85,9.986,5.761a1.18,1.18,0,0,0,.309.077q.009.1.012.2a3.613,3.613,0,0,1-.841,1.8,30.644,30.644,0,0,1-2.616,4.229q-5.175,3.02-10.349,6.042c-.213.124-.414.269-.62.4-1.849.833-3.486,2.041-5.27,2.989-.308.164-.574.433-.957.436" transform="translate(-26.243 -121.367)" fill="#e17a4e"/>
    <path id="Path_97339" data-name="Path 97339" d="M62.487,180.936c-1.2,2.452-2.625,4.775-4.055,7.095l-.02-7.1,4.075.008" transform="translate(-41.597 -128.844)" fill="#fed221"/>
    <path id="Path_97340" data-name="Path 97340" d="M117.445,206.378a54.465,54.465,0,0,1,3.457-6.026,12.123,12.123,0,0,1,3.454,1.984,79.338,79.338,0,0,1-6.911,4.042" transform="translate(-83.636 -142.676)" fill="#db455b"/>
  </g>
</svg>
