<svg id="Group_28450" data-name="Group 28450" xmlns="http://www.w3.org/2000/svg" xmlns:xlink="http://www.w3.org/1999/xlink" width="104.789" height="111.649" viewBox="0 0 104.789 111.649">
  <defs>
    <clipPath id="clip-path">
      <rect id="Rectangle_9628" data-name="Rectangle 9628" width="104.789" height="111.649" fill="#fff"/>
    </clipPath>
  </defs>
  <g id="Group_28449" data-name="Group 28449" clip-path="url(#clip-path)">
    <path id="Path_97341" data-name="Path 97341" d="M80.831,55.922c0,16.232-.081,32.464.053,48.695.037,4.466-2.968,7.052-7.092,7.032-22.417-.112-44.834-.061-67.252-.043-2.647,0-4.756-.945-5.883-3.374a8.555,8.555,0,0,1-.63-3.494Q-.028,77.277,0,49.816,0,28.208,0,6.6C.006,3.112,1.749.768,4.813.13A8.556,8.556,0,0,1,6.545,0Q40.42,0,74.295,0c4.138,0,6.532,2.416,6.534,6.6q.008,24.659,0,49.318m-28.425-34H66.468c1.286,0,2.574.038,3.857-.019a1.988,1.988,0,0,0,1.947-2.022,2.022,2.022,0,0,0-1.917-1.931c-.288-.027-.581-.012-.871-.012q-17.111,0-34.222,0c-.373,0-.831-.116-1.1.055-.591.376-1.371.818-1.543,1.392a2.447,2.447,0,0,0,.556,1.97,2.671,2.671,0,0,0,1.81.544c5.807.038,11.615.023,17.422.023m-.022,19.928q-8.524,0-17.049,0a6.509,6.509,0,0,0-1.118.027,1.98,1.98,0,0,0-.052,3.923,4.217,4.217,0,0,0,.868.033q17.3,0,34.6,0c.208,0,.416.009.622-.006a1.985,1.985,0,1,0,.052-3.969c-.33-.027-.664-.01-1-.01H52.385m-.126,23.914H35.334a6.47,6.47,0,0,0-1.118.028,1.979,1.979,0,0,0-.049,3.921,4.97,4.97,0,0,0,.993.035H69.507a8.491,8.491,0,0,0,.871-.014,1.979,1.979,0,0,0,.049-3.951,10.167,10.167,0,0,0-1.119-.019H52.259m.009,23.913H35.592c-.291,0-.581-.007-.871,0-1.388.04-2.235.777-2.254,1.957-.02,1.223.856,1.991,2.312,2.026.083,0,.166,0,.249,0q17.36,0,34.72,0a3.916,3.916,0,0,0,.868-.042,1.978,1.978,0,0,0-.057-3.909,7.33,7.33,0,0,0-1.118-.032q-8.586,0-17.173,0M15.832,22.46c-1.235-1.257-2.408-2.48-3.615-3.669-1.052-1.038-2.2-1.124-3.067-.284-.892.865-.8,2.068.284,3.157,1.488,1.5,2.992,2.986,4.492,4.475,1.476,1.466,2.325,1.479,3.776.039q3.22-3.2,6.426-6.409c1.232-1.23,2.5-2.428,3.68-3.7,1.108-1.2.608-3.129-.9-3.283a3.092,3.092,0,0,0-2.166.808c-2.987,2.867-5.881,5.832-8.912,8.87m-.025,23.951c-1.212-1.255-2.345-2.46-3.513-3.631-1.113-1.116-2.27-1.23-3.158-.366s-.787,2.069.295,3.159q2.321,2.34,4.67,4.653c1.272,1.253,2.214,1.244,3.512-.046q4.94-4.911,9.861-9.84a4.306,4.306,0,0,0,.576-.649,1.969,1.969,0,0,0-2.789-2.709,7.02,7.02,0,0,0-.9.852c-2.807,2.814-5.612,5.63-8.551,8.578M15.79,70.323c-1.254-1.3-2.383-2.516-3.554-3.685-1.087-1.085-2.3-1.152-3.155-.237-.816.872-.7,2.022.332,3.069q2.319,2.34,4.667,4.651c1.284,1.267,2.22,1.268,3.512-.01,1.975-1.952,3.934-3.92,5.9-5.882,1.408-1.405,2.838-2.79,4.215-4.225a1.983,1.983,0,0,0-.53-3.368,2.164,2.164,0,0,0-2.45.722c-2.913,2.945-5.848,5.869-8.937,8.963m.016,23.911c-1.242-1.285-2.375-2.49-3.546-3.659-1.1-1.1-2.285-1.183-3.155-.283s-.73,2.047.373,3.156q2.279,2.293,4.578,4.564c1.293,1.278,2.238,1.293,3.512.038,1.594-1.571,3.169-3.16,4.753-4.741,1.789-1.786,3.6-3.553,5.361-5.365a1.992,1.992,0,0,0-.59-3.425,2.164,2.164,0,0,0-2.341.732c-2.913,2.946-5.845,5.873-8.945,8.983" transform="translate(0 0)" fill="#fff"/>
    <path id="Path_97342" data-name="Path 97342" d="M258.2,93.383h16.431c.021.468.057.9.057,1.341q0,23.779-.019,47.559a7.226,7.226,0,0,1-.49,2.525c-1.843,4.8-3.751,9.565-5.624,14.348-.4,1.016-.878,1.929-2.142,1.924s-1.731-.912-2.13-1.934c-1.913-4.9-3.861-9.788-5.769-14.691a4.774,4.774,0,0,1-.343-1.683q-.027-24.277-.012-48.555c0-.242.024-.484.042-.834" transform="translate(-169.898 -61.458)" fill="#fff"/>
    <path id="Path_97343" data-name="Path 97343" d="M274.574,58.636H258.25c-.726-5.13.3-9.188,5.031-11.19a8.183,8.183,0,0,1,11.282,7.048c.081,1.353.012,2.716.012,4.142" transform="translate(-169.823 -30.806)" fill="#fff"/>
  </g>
</svg>
