<svg id="Group_28446" data-name="Group 28446" xmlns="http://www.w3.org/2000/svg" xmlns:xlink="http://www.w3.org/1999/xlink" width="141.88" height="96.78" viewBox="0 0 141.88 96.78">
  <defs>
    <clipPath id="clip-path">
      <rect id="Rectangle_9626" data-name="Rectangle 9626" width="141.88" height="96.78" fill="#fff"/>
    </clipPath>
  </defs>
  <g id="Group_28445" data-name="Group 28445" clip-path="url(#clip-path)">
    <path id="Path_97311" data-name="Path 97311" d="M0,47.487A103.56,103.56,0,0,1,15.939,25.466C25.983,14.912,37.591,6.751,51.771,2.8c19.982-5.57,38.892-2.8,56.5,8.1,14.138,8.753,24.773,20.876,32.907,35.283a3.533,3.533,0,0,1,.261,3.776c-9.962,17.658-23.188,32.1-41.968,40.41-22.548,9.974-44.668,8.209-65.687-4.589C19.173,76.883,8.3,64.335.2,49.332c-.04-.074-.13-.122-.2-.182V47.487m102.206.842a31.3,31.3,0,0,0-31.19-31.254C53.989,16.9,39.8,31.024,39.721,48.228a31.242,31.242,0,1,0,62.485.1" transform="translate(0 0)" fill="#fff"/>
    <path id="Path_97312" data-name="Path 97312" d="M122.706,87.04a25.524,25.524,0,1,1,25.8,25.558,25.489,25.489,0,0,1-25.8-25.558m5.647-.535c-.049,1.971,1,3.287,2.686,3.367,1.772.084,2.916-1.119,3.032-3.186.438-7.849,5.9-13.286,13.838-13.773,1.978-.121,3.167-1.248,3.122-2.958-.045-1.694-1.357-2.791-3.3-2.76A19.987,19.987,0,0,0,128.353,86.5" transform="translate(-77.263 -38.756)" fill="#fff"/>
  </g>
</svg>
