<svg xmlns="http://www.w3.org/2000/svg" width="16.35" height="25.239" viewBox="0 0 16.35 25.239">
  <g id="Group_29195" data-name="Group 29195" transform="translate(-657.999 -1658.44)">
    <path id="Path_2748" data-name="Path 2748" d="M211.069,128.345a7.687,7.687,0,0,1-5.755-2.577,9.831,9.831,0,0,1-2.372-7.479c.619-6.229,6.832-14.335,7.1-14.677a1.3,1.3,0,0,1,2.061,0c.264.342,6.477,8.448,7.1,14.677a9.83,9.83,0,0,1-2.372,7.479,7.686,7.686,0,0,1-5.754,2.577m0-21.715c-1.745,2.513-5.131,7.846-5.536,11.916a7.19,7.19,0,0,0,1.711,5.474,5.11,5.11,0,0,0,7.649,0,7.191,7.191,0,0,0,1.711-5.474c-.4-4.069-3.791-9.4-5.536-11.916" transform="translate(455.105 1555.334)" fill="#fff"/>
    <path id="Path_2749" data-name="Path 2749" d="M222.236,167.129a1.3,1.3,0,0,1-1.07-.559,6.908,6.908,0,0,1-1.175-4.43,13.281,13.281,0,0,1,1.242-4.266,1.3,1.3,0,0,1,2.373,1.071,10.767,10.767,0,0,0-1.019,3.4,4.263,4.263,0,0,0,.717,2.735,1.3,1.3,0,0,1-1.067,2.045" transform="translate(441.451 1512.148)" fill="#fff"/>
  </g>
</svg>
