<svg id="Group_28877" data-name="Group 28877" xmlns="http://www.w3.org/2000/svg" xmlns:xlink="http://www.w3.org/1999/xlink" width="132.112" height="129.334" viewBox="0 0 132.112 129.334">
  <defs>
    <clipPath id="clip-path">
      <rect id="Rectangle_9489" data-name="Rectangle 9489" width="132.112" height="129.334" fill="#ca373c"/>
    </clipPath>
  </defs>
  <g id="Group_28252" data-name="Group 28252" clip-path="url(#clip-path)">
    <path id="Path_97192" data-name="Path 97192" d="M70.2,111.41a8.74,8.74,0,0,1-7.855.607c-14.5-5.884-23.892-16.165-27.4-31.538a27.322,27.322,0,0,1-.521-5.91c-.049-10.484,0-20.969-.053-31.454-.006-1.232.4-1.592,1.56-1.831,9.459-1.942,18.9-3.982,28.351-5.941a7.174,7.174,0,0,1,2.831,0c9.505,1.964,18.994,4.009,28.5,5.957,1.156.237,1.474.681,1.44,1.8-.077,2.54-.025,5.084-.025,7.722-4.543,1.266-7.057,4.658-8.535,8.728-1.782,4.908-4.873,8.2-9.864,9.715a1.084,1.084,0,0,0-.138.064C70.109,73.24,67.948,78.43,71.064,87.14c2.9,8.1,2.875,6.271-.062,14.538-1.125,3.167-1.889,6.336-.8,9.732" transform="translate(-20.34 -20.831)" fill="#ca373c"/>
    <path id="Path_97193" data-name="Path 97193" d="M158.453,84.087a39.87,39.87,0,0,1,5.487,1.735,17.147,17.147,0,0,0,15.563-.007,19.743,19.743,0,0,1,3.608-1.209c3.435-.883,6.012.119,7.809,3.176a46.471,46.471,0,0,1,2.755,5.608,13.744,13.744,0,0,0,7.849,7.863,50.693,50.693,0,0,1,4.821,2.289c3.956,2.086,5.118,4.883,3.785,9.132q-.912,2.907-2.031,5.75a12.806,12.806,0,0,0,0,9.655,67.1,67.1,0,0,1,2.244,6.638c.909,3.382-.1,5.911-3.109,7.678a55.6,55.6,0,0,1-6.151,3.031,13.115,13.115,0,0,0-7.152,7.136c-.739,1.728-1.548,3.431-2.41,5.1-2.172,4.207-4.98,5.367-9.458,3.923-1.741-.561-3.477-1.153-5.168-1.847a13.258,13.258,0,0,0-10.387.006,58.461,58.461,0,0,1-6.05,2.086c-3.567.994-6.183-.059-8.024-3.271a62.384,62.384,0,0,1-2.943-6.027,13.085,13.085,0,0,0-7.173-7.111c-1.779-.748-3.527-1.585-5.236-2.484-3.95-2.077-5.108-4.87-3.781-9.131.589-1.891,1.264-3.76,1.995-5.6a13.217,13.217,0,0,0,0-9.957,64.084,64.084,0,0,1-2.346-7.239,5.72,5.72,0,0,1,2.619-6.489,21.981,21.981,0,0,1,4.574-2.406,16.46,16.46,0,0,0,10.4-10.4,22.777,22.777,0,0,1,2.494-4.7,6.524,6.524,0,0,1,5.409-2.93m-13.3,39.148a26.593,26.593,0,1,0,26.608-26.6,26.539,26.539,0,0,0-26.608,26.6" transform="translate(-78.557 -49.762)" fill="#ca373c"/>
    <path id="Path_97194" data-name="Path 97194" d="M62.127,100.322A59.89,59.89,0,0,1,48.7,105.834c-3.65,1.092-7,.112-10.252-1.1C17.8,97.064,4.917,82.6.553,60.851a35.495,35.495,0,0,1-.525-6.838C-.017,39.552,0,25.09.006,10.628c0-.353.029-.707.052-1.225,2.9-.627,5.808-1.268,8.722-1.882Q26.393,3.809,44.013.135a6.76,6.76,0,0,1,2.681,0q21.649,4.52,43.282,9.117c.2.042.39.1.673.175V32.645L81.579,29.6c0-3.262,0-6.567,0-9.872,0-2.326-.532-3-2.754-3.47Q62.632,12.832,46.435,9.439a5.672,5.672,0,0,0-2.253.023q-16.275,3.391-32.538,6.844c-1.877.4-2.468,1.095-2.469,3.049C9.17,31.016,9.1,42.678,9.2,54.338,9.3,65.49,13.964,74.806,21.305,82.9A48.062,48.062,0,0,0,40.923,95.97c2.972,1.07,5.858,1.356,8.716-.019a4.2,4.2,0,0,1,5.157.6c1.525,1.267,3.559,1.923,5.372,2.842.531.269,1.075.514,1.96.935" transform="translate(0 0.001)" fill="#ca373c"/>
    <path id="Path_97195" data-name="Path 97195" d="M273.621,279.285l-7.035-12.168a10.818,10.818,0,0,0,7.472-5.35c1.531-2.666,2.835-5.461,4.332-8.382l10.025,17.358c-2.767-.147-5.279-.206-7.775-.439a3.113,3.113,0,0,0-3.505,2c-1.049,2.249-2.226,4.438-3.513,6.98" transform="translate(-157.763 -149.951)" fill="#ca373c"/>
    <path id="Path_97196" data-name="Path 97196" d="M146.473,253.149c.909,1.91,1.577,3.547,2.443,5.072a26.132,26.132,0,0,0,3.619,5.579c1.47,1.494,3.555,2.383,5.453,3.59L151.2,279.141c-1.169-2.308-2.23-4.4-3.287-6.491-1.232-2.438-1.536-2.594-4.267-2.424-2.317.144-4.637.239-7.237.37l10.06-17.447" transform="translate(-80.728 -149.811)" fill="#ca373c"/>
    <path id="Path_97197" data-name="Path 97197" d="M175.113,148.554a21.7,21.7,0,1,1,21.632,21.66,21.69,21.69,0,0,1-21.632-21.66M192.8,153.19c-2.135-2.172-4.1-4.224-6.128-6.22a2.356,2.356,0,0,0-3.528-.2,2.422,2.422,0,0,0,.124,3.647q3.74,3.819,7.554,7.565c1.368,1.344,2.616,1.342,3.991-.024q7.746-7.7,15.444-15.443c1.214-1.221,1.283-2.612.293-3.655-1.023-1.078-2.506-1.019-3.763.227q-4.883,4.836-9.723,9.716c-1.4,1.4-2.761,2.84-4.262,4.388" transform="translate(-103.63 -75.047)" fill="#ca373c"/>
  </g>
</svg>
