<svg xmlns="http://www.w3.org/2000/svg" xmlns:xlink="http://www.w3.org/1999/xlink" width="133.085" height="133.073" viewBox="0 0 133.085 133.073">
  <defs>
    <clipPath id="clip-path">
      <rect id="Rectangle_9487" data-name="Rectangle 9487" width="133.085" height="133.073" fill="#ca373c"/>
    </clipPath>
  </defs>
  <g id="Group_28879" data-name="Group 28879" transform="translate(0)">
    <g id="Group_28248" data-name="Group 28248" transform="translate(0)" clip-path="url(#clip-path)">
      <path id="Path_97184" data-name="Path 97184" d="M0,306.928a18.7,18.7,0,0,1,3.3-7.368,15.449,15.449,0,0,1,12.365-6.121q50.859-.069,101.719-.011a15.552,15.552,0,0,1,2.385,30.941,5.04,5.04,0,0,0-.731.233h-105a3.34,3.34,0,0,0-.6-.216,15.87,15.87,0,0,1-10.38-6.252A18.955,18.955,0,0,1,0,311.086ZM19.734,312.9a3.895,3.895,0,1,0-3.875-3.88,3.939,3.939,0,0,0,3.875,3.88m19.506-3.85a3.894,3.894,0,1,0-3.906,3.85,3.936,3.936,0,0,0,3.906-3.85m11.735-3.939a3.895,3.895,0,1,0,3.859,3.9,3.941,3.941,0,0,0-3.859-3.9m15.509,0a3.894,3.894,0,1,0,3.945,3.81,3.939,3.939,0,0,0-3.945-3.81m15.625,0a3.894,3.894,0,1,0,3.915,3.841,3.937,3.937,0,0,0-3.915-3.841m19.509,3.877a3.894,3.894,0,1,0-3.845,3.911,3.936,3.936,0,0,0,3.845-3.911m15.594,0a3.894,3.894,0,1,0-3.846,3.909,3.936,3.936,0,0,0,3.846-3.909" transform="translate(0 -191.528)" fill="#ca373c"/>
      <path id="Path_97185" data-name="Path 97185" d="M239.1,79.792c0-3.687-.023-7.093.031-10.5a1.692,1.692,0,0,1,.676-1.155c2.764-1.929,3.607-4.536,3.239-7.825-.253-2.267-.014-4.586-.076-6.88a2.342,2.342,0,0,0-.592-1.455q-6.018-6.107-12.126-12.126a2.291,2.291,0,0,0-1.46-.582q-13.187-.052-26.374,0a2.464,2.464,0,0,0-1.562.64q-6.066,5.968-12.034,12.034a2.491,2.491,0,0,0-.635,1.564q-.084,5.2,0,10.393a2.32,2.32,0,0,0,.689,1.656c2.788,2,3.625,4.652,3.222,7.973a52.908,52.908,0,0,0-.043,6.16c-.389-.318-.654-.5-.877-.723-3.066-3.058-6.109-6.141-9.2-9.176a5.119,5.119,0,0,1-1.638-3.928c.048-4.676.06-9.354-.006-14.031a5.511,5.511,0,0,1,1.756-4.274c4.718-4.652,9.42-9.322,14.047-14.063a5.872,5.872,0,0,1,5.059-2.063c.8.082,1.622.013,2.49.013V7.8h-1.371q-8.77,0-17.539,0c-2.635,0-4.41-1.577-4.415-3.891s1.773-3.9,4.4-3.9q30.791,0,61.583,0c2.656,0,4.421,1.545,4.441,3.863.02,2.362-1.769,3.929-4.506,3.931-6.232,0-12.463,0-18.788,0V31.45c1.11,0,2.222.03,3.332-.008a4.507,4.507,0,0,1,3.5,1.4q7.526,7.541,15.067,15.066a4.654,4.654,0,0,1,1.411,3.5c-.028,4.937.053,9.876-.063,14.81a4.917,4.917,0,0,1-1.141,3.034c-3.336,3.515-6.827,6.883-10.5,10.54" transform="translate(-117.716 0)" fill="#ca373c"/>
      <path id="Path_97186" data-name="Path 97186" d="M267.985,211.793H236.6c-.022-.466-.058-.885-.058-1.3q0-12.792,0-25.583c0-3.017,1.516-4.507,4.576-4.508q11.168,0,22.336,0c3.029,0,4.532,1.509,4.533,4.551q.006,12.792,0,25.583Z" transform="translate(-154.406 -117.759)" fill="#ca373c"/>
      <path id="Path_97187" data-name="Path 97187" d="M56.886,211.753V200.9q0-8.052,0-16.1c0-2.854,1.555-4.4,4.425-4.4q11.168-.008,22.336,0c2.867,0,4.421,1.544,4.424,4.4q.009,12.921,0,25.843v1.114Z" transform="translate(-37.133 -117.757)" fill="#ca373c"/>
    </g>
  </g>
</svg>
