<svg xmlns="http://www.w3.org/2000/svg" xmlns:xlink="http://www.w3.org/1999/xlink" width="146.584" height="137.363" viewBox="0 0 146.584 137.363">
  <defs>
    <clipPath id="clip-path">
      <rect id="Rectangle_9488" data-name="Rectangle 9488" width="146.584" height="137.363" fill="#0a2647"/>
    </clipPath>
  </defs>
  <g id="Group_28880" data-name="Group 28880" transform="translate(0)">
    <g id="Group_28250" data-name="Group 28250" transform="translate(0)" clip-path="url(#clip-path)">
      <path id="Path_97188" data-name="Path 97188" d="M209.071,78.076c-1.5-.684-2.911-1.219-4.216-1.954a4.18,4.18,0,0,0-4.66.063,42.877,42.877,0,0,1-7.186,2.957,2.37,2.37,0,0,0-1.7,1.65c-.521,1.6-1.216,3.134-1.732,4.733a1.523,1.523,0,0,1-1.754,1.2q-4.49-.086-8.982,0a1.425,1.425,0,0,1-1.61-1.174,51.414,51.414,0,0,0-1.91-4.99,2.938,2.938,0,0,0-1.4-1.318q-4.232-1.9-8.541-3.609a3.085,3.085,0,0,0-2.036-.086c-1.636.607-3.179,1.473-4.811,2.094a1.864,1.864,0,0,1-1.64-.252q-3.475-3.379-6.774-6.946a1.809,1.809,0,0,1-.216-1.539c.646-1.713,1.494-3.348,2.125-5.065a2.993,2.993,0,0,0-.074-1.928c-1.129-2.939-2.426-5.812-3.493-8.773A2.327,2.327,0,0,0,146.94,51.5c-1.6-.579-3.155-1.267-4.754-1.838a1.351,1.351,0,0,1-1.08-1.52c.062-3.223-.009-6.448.064-9.671a1.764,1.764,0,0,1,.853-1.29c1.915-.859,4.338-1.114,5.706-2.5,1.307-1.318,1.515-3.768,2.251-5.7a10.363,10.363,0,0,1,1.223-2.618c1.361-1.786,1.162-3.441.126-5.3-.733-1.31-1.8-2.919-1.561-4.166s1.885-2.251,2.933-3.341c1.366-1.422,2.708-2.874,4.154-4.2a1.872,1.872,0,0,1,1.623-.307c1.678.638,3.271,1.512,4.949,2.151a2.83,2.83,0,0,0,1.894-.082q4.3-1.723,8.531-3.631a3.175,3.175,0,0,0,1.492-1.407A50.443,50.443,0,0,0,177.258,1.1,1.345,1.345,0,0,1,178.764,0q4.565.074,9.132,0a1.44,1.44,0,0,1,1.649,1.13,53.358,53.358,0,0,0,1.9,5,2.923,2.923,0,0,0,1.376,1.335q4.3,1.933,8.675,3.679a2.839,2.839,0,0,0,1.9.065,52.412,52.412,0,0,0,4.785-2.16,1.309,1.309,0,0,1,1.822.29q3.226,3.421,6.567,6.726a1.4,1.4,0,0,1,.316,1.862c-.851,1.847-2.244,3.726-2.258,5.6-.012,1.831,1.466,3.651,2.195,5.515.593,1.514.986,3.112,1.6,4.618a2.878,2.878,0,0,0,1.261,1.454c1.628.761,3.322,1.384,5.015,1.991a1.283,1.283,0,0,1,.951,1.457c-.041,3.224.023,6.449-.061,9.671a1.917,1.917,0,0,1-.963,1.369c-1.866.846-4.239,1.081-5.574,2.428-1.275,1.287-1.47,3.684-2.187,5.574a10.784,10.784,0,0,1-1.281,2.759c-1.38,1.8-1.138,3.453-.125,5.306.72,1.318,1.752,2.9,1.548,4.175-.193,1.2-1.81,2.178-2.822,3.232q-2.1,2.188-4.239,4.338a7.563,7.563,0,0,1-.867.668M163.2,43.329c-.022,11.442,8.992,20.746,20.121,20.77a20.53,20.53,0,0,0,20.3-20.782,20.214,20.214,0,1,0-40.418.012" transform="translate(-84.651 0)" fill="#0a2647"/>
      <path id="Path_97189" data-name="Path 97189" d="M65.025,224.952l-7.63-30.236c.453-.149.853-.3,1.263-.413,7.462-2.032,14.922-4.075,22.392-6.081a16.131,16.131,0,0,1,14.216,2.68c4.007,2.868,8,5.768,12.143,8.422,4.306,2.759,8.746,5.306,13.193,7.824a6.451,6.451,0,0,1,1.616,10.319c-1.785,1.729-4.441,1.987-7.261.489-3.009-1.6-5.952-3.324-8.9-5.047-2.684-1.571-5.314-3.239-8-4.814a2.329,2.329,0,0,0-3.4.735,2.422,2.422,0,0,0,.939,3.424c6.993,4.332,13.857,8.892,21.446,12.136a22.423,22.423,0,0,0,15.477,1.12c10.609-3.017,21.248-5.922,31.893-8.8a23.358,23.358,0,0,1,10.366-.781c5.57,1.01,7.915,6.2,4.908,10.9a6.322,6.322,0,0,1-3.7,2.664q-25.5,7.775-50.979,15.6c-2,.614-4.04,1.14-6.009,1.859-5.648,2.061-10.892.979-15.921-1.994q-16.26-9.613-32.5-19.255c-1.737-1.035-3.4-2-5.562-.751" transform="translate(-34.432 -110.651)" fill="#0a2647"/>
      <path id="Path_97190" data-name="Path 97190" d="M12.281,183.212c2.339-.014,3.762,1.2,4.365,3.547q2.091,8.152,4.141,16.316,3.535,14.023,7.058,28.05c.885,3.519-.122,5.339-3.52,6.278-2.357.651-4.721,1.274-7.087,1.889-3.048.793-4.945-.329-5.734-3.439Q5.86,213.6.246,191.346c-.8-3.175.356-5.123,3.466-5.951q3.689-.981,7.385-1.937c.48-.124.971-.2,1.185-.247m-2.847,6.757a2.792,2.792,0,0,0-.077,5.582,2.747,2.747,0,0,0,2.783-2.745,2.78,2.78,0,0,0-2.706-2.837" transform="translate(0 -108.061)" fill="#0a2647"/>
      <path id="Path_97191" data-name="Path 97191" d="M225.48,94.329c3.382-3.4,6.508-6.627,9.751-9.726a3.8,3.8,0,0,1,2.718-1.142,3.517,3.517,0,0,1,2.363,1.914,3.6,3.6,0,0,1-.55,3.044c-3.924,4.282-7.982,8.435-12.06,12.564a2.784,2.784,0,0,1-4.165-.1q-3.331-3.3-6.551-6.725a3.024,3.024,0,0,1-.024-4.382,2.882,2.882,0,0,1,4.279.115c1.465,1.45,2.852,2.982,4.238,4.441" transform="translate(-129.603 -49.216)" fill="#0a2647"/>
    </g>
  </g>
</svg>
