<svg id="Group_28883" data-name="Group 28883" xmlns="http://www.w3.org/2000/svg" xmlns:xlink="http://www.w3.org/1999/xlink" width="141.452" height="141.436" viewBox="0 0 141.452 141.436">
  <defs>
    <clipPath id="clip-path">
      <rect id="Rectangle_9491" data-name="Rectangle 9491" width="141.452" height="141.436" fill="#0a2647"/>
    </clipPath>
  </defs>
  <g id="Group_28254" data-name="Group 28254" clip-path="url(#clip-path)">
    <path id="Path_97198" data-name="Path 97198" d="M106.233,109.146c.045-.575.127-1.151.128-1.726.009-7.466.042-14.932-.021-22.4a3.716,3.716,0,0,1,2.138-3.727c4.118-2.258,8.143-4.687,12.227-7.011a1.441,1.441,0,0,0,.886-1.574,7.294,7.294,0,0,1,5.36-7.682,7.631,7.631,0,0,1,8.673,3.424,7.249,7.249,0,0,1-1.257,8.933,7.658,7.658,0,0,1-9.391.935c-.288-.177-.567-.369-.927-.6-4.126,2.386-8.278,4.772-12.4,7.2a1.406,1.406,0,0,0-.595,1.018c-.02,7.611,0,15.222.02,22.832,0,.087.078.173.145.31h15.706c0-2.729.031-5.422-.043-8.113-.008-.31-.552-.695-.928-.891a7.348,7.348,0,0,1-4.025-8.352,7.6,7.6,0,0,1,14.664-.124,7.284,7.284,0,0,1-3.506,8.2c-.461.263-.947.483-1.442.732v8.6c2.554,0,5.056,0,7.558,0,2.084,0,2.23.147,2.232,2.233,0,2.375-.043,4.752.02,7.126a1.98,1.98,0,0,1-1.344,2.118c-3.931,1.763-7.849,3.557-11.727,5.431a3.625,3.625,0,0,0-1.606,1.662c-1.468,3.318-2.852,6.676-4.176,10.055a3.177,3.177,0,0,0-.024,2.042c1.411,4.018,2.859,8.025,4.415,11.988a2.344,2.344,0,0,1-.678,2.928q-5.665,5.544-11.208,11.213a2.253,2.253,0,0,1-2.806.639q-5.953-2.315-11.99-4.413a3.4,3.4,0,0,0-2.177.043q-5.07,1.981-10.055,4.176a3.4,3.4,0,0,0-1.574,1.5c-1.87,3.881-3.67,7.8-5.43,11.728A2.1,2.1,0,0,1,78.842,181c-5.382-.048-10.765-.063-16.146.008a2.276,2.276,0,0,1-2.407-1.594q-2.6-5.836-5.353-11.6a3.178,3.178,0,0,0-1.469-1.423q-5.121-2.239-10.325-4.285a2.951,2.951,0,0,0-1.9.017q-6.157,2.185-12.262,4.512a2.007,2.007,0,0,1-2.447-.549q-5.765-5.857-11.623-11.622a2,2,0,0,1-.529-2.449c1.517-3.979,2.946-7.992,4.462-11.972a3.183,3.183,0,0,0-.073-2.616c-1.388-3.2-2.633-6.454-4.048-9.638a3.853,3.853,0,0,0-1.688-1.768c-3.83-1.864-7.7-3.64-11.592-5.379A2.06,2.06,0,0,1,0,118.438c.075-2.422.018-4.847.024-7.272,0-1.809.22-2.031,1.991-2.037,2.56-.007,5.119,0,7.852,0,0-2.776.037-5.428-.046-8.076-.011-.345-.589-.774-1-.987a7.434,7.434,0,0,1-4.084-8.094,7.512,7.512,0,0,1,6.886-5.9,7.472,7.472,0,0,1,7.7,4.991,7.167,7.167,0,0,1-3.641,8.842,1.819,1.819,0,0,0-1.182,1.98c.066,2.361.021,4.725.021,7.264h16.1l-.064-.045c.023,1.785-.1,3.587.091,5.354a40.291,40.291,0,0,0,79.286,5.1,37.505,37.505,0,0,0,1-10.458H106.2Z" transform="translate(0 -39.577)" fill="#0a2647"/>
    <path id="Path_97199" data-name="Path 97199" d="M90.508,178.98c5.522-.007,11.044,0,16.565-.033,1.214-.008,1.725.441,1.788,1.691a17.13,17.13,0,0,0,33.835,3.286,14.293,14.293,0,0,0,.428-3.154c.019-1.283.491-1.835,1.815-1.825,5.522.042,11.044.027,16.565.032l-.038-.037a6.517,6.517,0,0,1,.158.987,35.626,35.626,0,0,1-69.576,11.013,28.878,28.878,0,0,1-1.516-12Z" transform="translate(-55.272 -109.409)" fill="#0a2647"/>
    <path id="Path_97200" data-name="Path 97200" d="M144.441,23.2c-2.16,0-4.136.051-6.106-.03-.608-.025-1.494-.256-1.717-.677-.211-.4.124-1.294.49-1.756q7.85-9.909,15.784-19.751c1.045-1.3,1.591-1.313,2.62-.033q7.964,9.912,15.882,19.86a2.028,2.028,0,0,1,.456,1.648c-.186.4-1,.684-1.554.706-2.023.081-4.051.032-6.3.032V25.15q0,18.241,0,36.481c0,2.306-.108,2.415-2.342,2.415q-7.486,0-14.973,0c-2.071,0-2.241-.163-2.241-2.223q0-18.385,0-36.771Z" transform="translate(-83.492 0)" fill="#0a2647"/>
    <path id="Path_97201" data-name="Path 97201" d="M38.224,109.157a15.869,15.869,0,0,1-.182-1.706c-.012-6.933-.033-13.867.017-20.8a2.139,2.139,0,0,0-1.255-2.164c-3.928-2.2-7.817-4.473-11.8-6.764a7.917,7.917,0,0,1-7.081,1.5,7.348,7.348,0,0,1-5.354-8.615,7.562,7.562,0,0,1,8.092-5.828c4.049.452,7,3.6,6.791,7.5a2.06,2.06,0,0,0,1.269,2.232c4.008,2.26,7.955,4.629,11.98,6.857a3.54,3.54,0,0,1,2,3.514c-.051,7.515-.025,15.03-.016,22.545,0,.574.09,1.149.138,1.723l.025-.04h-4.7Z" transform="translate(-7.598 -39.581)" fill="#0a2647"/>
    <path id="Path_97202" data-name="Path 97202" d="M116.1,110.811c0-3.442-.01-6.883,0-10.325.007-1.71.9-2.763,2.3-2.778s2.346,1.05,2.349,2.734q.02,10.324,0,20.649c0,1.711-.931,2.714-2.377,2.685-1.388-.028-2.254-1-2.264-2.642-.02-3.441-.006-6.883-.006-10.324" transform="translate(-70.987 -59.742)" fill="#0a2647"/>
    <path id="Path_97203" data-name="Path 97203" d="M235.931,110.819c0-3.393-.007-6.786,0-10.179.005-1.834.862-2.912,2.3-2.932s2.351,1.064,2.353,2.871q.012,10.179,0,20.359c0,1.846-.871,2.865-2.364,2.839-1.468-.025-2.279-1.046-2.284-2.924-.01-3.344,0-6.689,0-10.034" transform="translate(-144.253 -59.741)" fill="#0a2647"/>
  </g>
</svg>
