<svg xmlns="http://www.w3.org/2000/svg" width="352.976" height="2338.476" viewBox="0 0 352.976 2338.476">
  <path id="Path_98155" data-name="Path 98155" d="M276.176,2.5H84.628A82.128,82.128,0,0,0,2.5,84.632V428.871A82.128,82.128,0,0,0,84.628,511h183.72a82.128,82.128,0,0,1,82.128,82.128V1045.1a82.128,82.128,0,0,1-82.128,82.128H84.629A82.128,82.128,0,0,0,2.5,1209.353v488.6a82.128,82.128,0,0,0,82.127,82.128H268.348a82.128,82.128,0,0,1,82.128,82.128v391.644a82.128,82.128,0,0,1-82.128,82.128H81.146" transform="translate(0 -0.004)" fill="none" stroke="#001d37" stroke-linecap="round" stroke-linejoin="round" stroke-width="5"/>
</svg>
