<svg xmlns="http://www.w3.org/2000/svg" width="1280.383" height="621.593" viewBox="0 0 1280.383 621.593">
  <path id="Path_97423" data-name="Path 97423" d="M1211.938,621.589H1059.7c-22.98,0-44.584-7.066-60.834-19.9s-25.2-29.89-25.2-48.035V67.928c0-36.247-37.345-65.736-83.249-65.736H740.3c-45.9,0-83.25,29.489-83.25,65.736V553.657c0,18.146-8.949,35.2-25.2,48.035s-37.853,19.9-60.833,19.9H422.17c-22.98,0-44.584-7.066-60.833-19.9s-25.2-29.89-25.2-48.035V158.128c0-36.247-37.346-65.736-83.25-65.736H109.667c-49.24,0-89.3,31.631-89.3,70.513V320.39a1.271,1.271,0,0,1-1.391,1.1,1.271,1.271,0,0,1-1.391-1.1V162.9c0-19.421,9.578-37.68,26.97-51.413s40.515-21.3,65.11-21.3H252.889c22.98,0,44.584,7.066,60.833,19.9s25.2,29.89,25.2,48.036V553.657c0,36.247,37.346,65.736,83.25,65.736H571.017c45.9,0,83.25-29.489,83.25-65.736V67.928c0-18.145,8.949-35.2,25.2-48.035S717.318,0,740.3,0H890.417C913.4,0,935,7.062,951.25,19.893s25.2,29.89,25.2,48.035V553.657c0,36.247,37.346,65.736,83.25,65.736h152.24c45.9,0,83.25-29.489,83.25-65.736V320.07a1.43,1.43,0,0,1,2.781,0V553.657c0,18.146-8.949,35.2-25.2,48.035s-37.853,19.9-60.833,19.9" transform="translate(-17.587 0.004)" fill="#0a2647"/>
</svg>
